<?xml version="1.0" encoding="UTF-8" standalone="no"?>
<!-- Created with Inkscape (http://www.inkscape.org/) -->

<svg
   xmlns:dc="http://purl.org/dc/elements/1.1/"
   xmlns:cc="http://creativecommons.org/ns#"
   xmlns:rdf="http://www.w3.org/1999/02/22-rdf-syntax-ns#"
   xmlns:svg="http://www.w3.org/2000/svg"
   xmlns="http://www.w3.org/2000/svg"
   xmlns:sodipodi="http://sodipodi.sourceforge.net/DTD/sodipodi-0.dtd"
   xmlns:inkscape="http://www.inkscape.org/namespaces/inkscape"
   id="svg2"
   version="1.1"
   inkscape:version="0.48.4 r9939"
   width="388.31955"
   height="307.99646"
   sodipodi:docname="alga2.svg">
  <metadata
     id="metadata8">
    <rdf:RDF>
      <cc:Work
         rdf:about="">
        <dc:format>image/svg+xml</dc:format>
        <dc:type
           rdf:resource="http://purl.org/dc/dcmitype/StillImage" />
        <dc:title></dc:title>
      </cc:Work>
    </rdf:RDF>
  </metadata>
  <defs
     id="defs6" />
  <sodipodi:namedview
     pagecolor="#ffffff"
     bordercolor="#666666"
     borderopacity="1"
     objecttolerance="10"
     gridtolerance="10"
     guidetolerance="10"
     inkscape:pageopacity="0"
     inkscape:pageshadow="2"
     inkscape:window-width="1861"
     inkscape:window-height="1056"
     id="namedview4"
     showgrid="false"
     inkscape:zoom="0.72839506"
     inkscape:cx="-42.902457"
     inkscape:cy="156.86203"
     inkscape:window-x="59"
     inkscape:window-y="24"
     inkscape:window-maximized="1"
     inkscape:current-layer="svg2"
     fit-margin-top="0"
     fit-margin-left="0"
     fit-margin-right="0"
     fit-margin-bottom="0" />
  <g
     id="g2997"
     transform="translate(-6.7668592,-10.865579)">
    <path
       style="fill:#be7885;fill-opacity:0.78995439"
       d="m 292.75,318.31067 c -3.49537,-5.35284 1.04862,-13.17739 -7.70659,-11.54182 7.57776,-10.43783 -3.22382,-20.17935 -12.04341,-15.87584 -1.34884,4.47495 -7.47125,-7.92445 -8.1965,3.1595 -3.68564,10.40136 -8.07698,10.06153 -5.80348,-1.05251 -4.19475,-8.12688 -14.45746,15.27686 -9.37234,-3.68319 -9.50044,-7.91939 12.48737,-20.71382 7.43569,-25.31317 -12.31951,-4.61377 -21.95408,21.42943 -27.69376,4.23422 -17.57192,7.93389 -16.55827,-17.05442 -33.73864,-17.20649 -9.57639,-4.35128 7.83959,31.71554 -2.39504,15.08079 -3.19812,-9.32028 -21.44823,-5.94984 -11.10944,4.62763 4.17305,5.21305 15.78534,26.61598 8.52128,25.4011 -3.94479,-16.41581 -4.38153,5.09324 -7.37158,2.16714 1.91012,-11.25355 -0.16384,-19.22095 -8.03572,-25.63261 -0.053,6.26479 5.66006,39.48241 -3.78103,21.12657 -3.22238,-8.42596 1.06864,-31.85831 -4.38099,-32.20554 -4.59726,6.07114 0.0931,33.15143 -5.76792,28.07086 2.11677,-19.91376 -7.72086,2.72446 -14.13189,1.43548 3.32784,-3.8651 17.16623,-24.65244 9.66507,-21.65718 -3.79892,14.07505 -10.88409,0.72661 -20.37283,9.61561 0.51276,-3.73564 14.73422,-20.49812 4.74616,-30.69528 -13.61625,2.06189 -13.55474,-6.27183 -3.07026,-11.68912 14.1962,-17.71531 -12.50169,0.0458 -17.50417,-9.01587 -21.979555,6.70274 -9.82866,-23.35118 -13.26391,-31.33595 -10.174449,11.22248 -0.0503,36.63755 -8.463436,43.58095 -0.226093,-7.99365 -6.09001,-29.88053 -6.858523,-10.23428 0.516178,6.85154 -0.81323,20.91366 -3.22824,6.14237 -5.455965,8.44991 -8.202419,9.88104 -4.825973,-1.09095 3.929783,-6.70096 6.200046,-35.42662 -2.363443,-15.44671 -4.510125,13.92972 -2.733281,32.94284 -12.104715,43.69586 -3.527872,-9.53942 8.278708,-28.83445 4.593876,-36.40557 -7.398313,7.41283 -6.701432,30.31288 -11.832007,31.83164 0.716541,-9.4035 -0.347441,-17.44512 -9.037662,-7.69343 C 42.371819,254.1494 65.01833,239.0286 65.485704,233.5 c 3.736422,-6.23483 15.336604,-24.53374 0.849266,-12.00768 -11.837478,22.47928 4.923382,-25.30371 -7.331491,-5.74124 -3.584827,7.41094 -14.993918,22.84317 -7.230422,5.20461 3.255556,-6.01243 9.140996,-19.61594 -0.699467,-8.69486 -3.00118,4.83575 -17.505998,19.18635 -10.886884,5.5895 6.907117,-6.14618 23.433207,-26.67546 3.628432,-14.97078 -9.321715,9.13265 -16.500017,-3.38891 -28.663342,2.27175 1.316837,-8.63872 25.900148,-7.29623 23.939136,-18.06571 -9.777712,-2.4974 -22.14313,8.44773 -27.776204,8.80923 7.0042,-7.58321 -13.9636064,-4.01427 0.932189,-7.84031 9.979693,-7.25896 36.030938,-4.40602 38.273848,-11.83598 C 36.537077,177.71304 22.44813,177.4555 8.4,177.55898 c -1.9475042,-13.92564 29.459679,2.36211 28.880532,-7.79334 -6.455833,-5.86381 -19.786896,-7.80468 -22.775563,-13.42044 15.254847,0.0255 27.875967,13.23825 43.065794,16.15214 15.892397,5.58468 31.620512,3.91237 43.920547,-8.06795 1.14239,-3.30414 -19.792093,-6.37132 -6.136871,-9.47124 -7.57721,-12.18696 13.644161,5.47105 21.586181,1.97904 3.24993,-0.22637 -10.15376,-7.76735 1.35708,-8.29288 3.86688,-18.71072 -20.97919,-9.84351 -31.119702,-5.5512 -7.319864,8.44785 -32.31567,14.80464 -35.479253,10.41342 -11.818058,-9.11742 27.888284,0.52959 16.783872,-8.86139 -7.587388,-2.43002 -33.918921,-5.78985 -17.365106,-9.58225 8.170803,2.49934 29.569595,10.47228 31.329463,1.74997 -8.505688,-11.59629 -37.417371,-4.67733 -38.861148,-11.05332 -9.74406,-11.04967 16.674511,1.14348 24.37884,-0.89181 2.799349,-1.34192 -25.375198,-17.88591 -8.495291,-13.19173 8.76327,-1.67329 18.644393,1.76158 26.985652,2.14594 -4.730332,-4.4551 -14.509866,-20.519354 -2.105595,-8.70319 10.603873,-2.04397 -17.232605,-18.801735 2.442882,-15.181681 8.280375,1.653987 22.071396,-2.139065 8.241527,-8.419362 -10.479402,-4.560588 -10.937641,-14.413688 1.423064,-6.917544 20.175735,14.879415 -2.699302,-30.812316 13.427365,-13.713 5.4057,2.856344 -4.46325,-13.839752 7.55165,-4.72448 4.87985,-0.37197 -3.53259,-13.131129 4.14184,-3.299102 3.12498,9.084381 20.28277,26.843288 10.53846,6.455506 -2.84779,-5.941585 -12.32801,-11.612206 -1.22727,-9.573207 3.90191,-13.187309 6.1529,23.033595 11.97364,26.085918 8.96376,13.132746 6.28265,-3.473682 14.13741,-8.033049 -3.05179,-3.198222 -14.58244,-29.641385 -6.38136,-18.371771 3.03838,7.08226 12.99796,18.361522 10.27901,2.723783 -4.31088,-11.622615 6.58921,-16.823068 7.00945,-2.558655 1.70807,18.15866 9.61107,-1.686109 15.95136,-2.861175 -7.38548,10.641718 -0.6801,42.505017 2.14154,14.646945 -0.33356,-11.257343 11.20492,-2.524943 16.57373,3.475104 13.18332,-3.237625 3.43114,-20.860243 6.06594,-30.547732 6.88404,4.204883 8.96473,25.337092 15.01389,8.178701 7.2419,-14.135314 8.19145,-1.997555 6.81989,7.072355 4.75178,-2.819053 15.01759,-16.6384 7.31616,-1.150558 -3.10294,4.112879 -18.51172,26.06192 -8.42073,21.52294 6.77993,-14.932122 32.26794,-21.134119 14.25157,-39.13426 -3.89457,-8.93105 -5.5724,-24.724684 2.35825,-8.640455 4.13642,13.931869 14.78421,13.048624 16.99387,-1.738423 0.29757,-7.837637 5.1312,-15.4674822 3.76919,-2.792594 -1.7575,8.086382 -5.52783,20.059235 5.03212,8.403954 4.21842,-4.780895 16.1172,-21.897973 8.90205,-6.330235 -7.01409,14.21126 18.08407,-11.0284502 8.33997,4.166754 1.18736,14.680738 -22.42312,28.089375 -19.7659,37.710305 8.09812,0.653809 31.34531,-9.738106 30.69375,-4.972772 -16.33861,3.509851 -7.22969,10.215502 -3.52172,14.237281 -9.7462,-6.697976 -38.52418,-5.352701 -21.79522,6.451135 -4.95122,9.301183 1.27222,8.926043 4.17744,6.734636 5.54287,7.391608 12.35056,14.528498 14.24154,0.447685 3.56068,3.480241 -8.02296,35.735013 4.14266,17.667253 0.14162,-8.560899 -2.22866,-19.124198 4.25154,-5.743655 1.8945,7.876695 17.81726,-8.503518 14.28772,-13.219428 -4.75577,-12.62617 9.63525,16.480655 8.9926,-0.656729 5.81162,-2.575974 -2.78776,31.021642 4.78708,12.147346 0.78292,-8.571305 15.41743,-26.37156 11.88806,-6.926422 9.79866,-14.542566 -4.05738,17.312058 10.65455,5.809938 13.22695,-5.286796 1.74348,1.079435 2.65558,7.61944 7.5415,-5.223349 25.20336,-12.799964 16.70598,3.3479 -11.51732,13.43561 19.51038,-2.57411 9.14009,9.35066 -20.10882,9.4262 15.71347,1.85809 7.86021,14.63684 -8.84672,6.99466 16.02667,7.35675 2.61507,13.20584 -16.36164,-1.40631 -4.77145,7.55996 -3.69922,11.50715 -5.62504,-6.85032 -33.82991,-12.19403 -15.28355,-0.62918 17.2631,13.82565 -11.23049,-5.13568 -10.08283,0.3391 -10.26075,11.49591 8.63642,4.91079 9.06743,8.99518 -6.65917,1.36808 -36.02466,8.30134 -14.10254,6.61082 9.6727,-3.16927 34.60825,11.23022 11.07488,7.54731 -21.17133,2.83628 26.94058,7.84537 2.9989,10.94521 15.05216,6.10307 0.52193,8.24667 -6,14.09565 8.33135,0.35865 22.71713,-3.43362 21.25,6.23513 2.68827,5.99599 -20.09273,12.36962 -27.75,14.14491 -8.18777,-0.62326 -14.681,6.5488 -2.10726,3.79386 9.29874,-4.26222 39.3063,-4.04417 28.59244,11.2054 -19.79194,-0.32302 3.32793,14.57669 -11.10444,22.00469 -5.54301,-0.82193 -25.7695,-12.19331 -14.04522,1.05475 7.69226,2.5512 18.77416,16.92588 3.41476,11.71135 0.24541,13.62848 -17.44177,-11.77027 -24.00028,2.31307 -6.87706,4.67161 -28.56629,-2.26473 -10.63895,4.95333 8.31479,1.45445 30.10496,0.79855 12.23618,10.13179 -5.93786,9.11521 -33.4879,-9.80268 -18.40909,3.80325 -8.45568,2.75522 -5.94718,6.97489 -3.34694,10.31638 -8.68028,1.24395 -20.41495,-10.8689 -12.53604,4.69841 -6.61974,-1.03116 -11.05136,-16.48101 -10.79883,-0.84714 -1.36045,1.86332 2.35997,15.04921 -3.00633,11.66957 z M 265.4583,281.4875 c -0.0427,-21.08353 -6.57703,21.97085 0,0 l 0,0 z m 17.16777,0.70963 c -2.53454,-6.55391 -5.42663,-31.11985 -6.06293,-10.47494 -4.04856,6.76346 9.37214,25.50475 6.06293,10.47494 z m -11.91881,-3.43547 c -1.34613,1.81759 0.61835,7.1561 0,0 z M 267,268 c -2.69252,-4.02999 -2.35666,3.89339 0,0 z m 42,-6.42327 c -1.23683,-7.86292 -21.32668,-16.40905 -8.10987,-4.71818 1.76917,0.45956 6.69596,9.45541 8.10987,4.71818 z m -77.49117,-0.59102 c 10.58189,-8.42759 29.64217,-2.3276 29.11156,-20.55467 4.33004,-19.99343 -28.76309,-24.81976 -34.96592,-42.87403 -5.1345,-5.06028 2.77727,9.24012 -5.8661,9.90817 -3.50926,5.41039 1.82015,29.71478 -5.74689,12.12378 -4.5192,-7.99843 -9.50527,-18.79944 -7.75511,-3.57696 1.63793,6.43828 10.41995,22.54704 2.50765,24.56127 1.14007,-13.74727 -19.59532,2.12717 -4.30783,5.91939 8.09664,6.2226 14.8395,20.00073 27.02264,14.49305 z M 339.75501,253.75 c -12.01595,-8.81963 -0.10597,5.28529 0,0 z M 318.6849,240.9253 c 4.4281,-6.52749 -34.906,-13.05623 -16.9349,-0.69648 5.41525,1.6465 11.43253,2.38457 16.9349,0.69648 z M 293,233.23363 c -0.29448,-10.18461 -30.47526,-18.27494 -15.6737,-1.99442 1.30217,3.67389 18.07846,10.55674 15.6737,1.99442 z m 59,2.29205 c -5.78591,-6.06027 -28.16559,-4.70509 -27.85739,-2.41123 9.19601,1.44138 18.50334,3.82693 27.85739,2.41123 z m -182,-5.14371 c -2.57832,-3.58099 -2.08179,6.47239 0,0 z m -24.00807,-11.37443 c 11.71263,-16.55832 -26.51237,15.13979 -3.1821,2.22446 l 3.1821,-2.22451 0,5e-5 z M 169.66228,216.25 c 2.80817,-8.81552 28.58473,-30.97925 7.51625,-29.72143 -10.10708,-1.62685 -17.14846,34.30352 -7.51625,29.72143 z m 24.36083,-7.29578 c 8.22574,-5.38466 5.01527,-17.48448 -3.21927,-6.33336 -1.83198,4.44312 -2.18737,20.65752 3.21927,6.33336 z m 174.57103,1.42262 c 8.27894,-2.84664 13.65486,-9.1599 1.3376,-4.97367 -9.12876,-0.43475 -21.6018,15.89084 -5.18166,6.76876 l 1.90154,-0.86639 1.94252,-0.9287 z m -295.782299,1.36168 c -3.033984,-6.49377 -5.563657,7.46372 0,0 z M 73.17378,206.907 c 5.547426,-5.71583 15.410323,-26.13134 1.60333,-12.0405 -3.453227,0.92382 -8.603307,15.64989 -1.60333,12.0405 z m 283.07309,-3.157 c 6.33072,-7.93223 21.37695,-13.48451 3.42032,-17.41179 -8.71592,-4.63638 -23.66608,-7.33007 -9.85792,3.89846 3.20467,2.03637 1.07784,20.11146 6.4376,13.51333 z M 140.72713,200 c 6.54842,-1.96355 28.31345,-18.86179 9.78903,-13.69075 -3.58031,1.08306 -23.57725,20.37974 -9.78903,13.69075 z m 115.93996,-0.0595 c 6.12662,-4.62297 24.07512,-11.6905 6.22797,-11.8036 -9.62709,3.55914 -25.91085,2.39052 -32.1797,7.62112 6.2661,5.64248 18.08132,7.38202 25.95173,4.18248 z m 31.37797,0.42476 c 9.47639,-7.14581 -20.16082,-4.19033 -3.92739,1.35602 l 1.76438,-0.54106 2.16301,-0.81493 0,-3e-5 z M 96.302542,192.00723 c 8.904638,-16.97635 -10.629803,1.99164 -7.588956,8.67424 3.507316,-1.77226 5.427216,-5.58935 7.588956,-8.67424 z m -49.635447,2.91116 c 7.036775,-4.98866 34.312855,-5.58658 29.456891,-13.7603 -11.859404,-4.42942 -33.231419,6.57661 -32.983219,15.23704 l 3.526328,-1.47674 z m 232.329285,0.41857 c -4.42342,-8.87257 -9.67387,6.47247 0,0 z M 123.36163,194.5 c -1.77848,-5.43218 -3.49768,4.95672 0,0 z m 224.29518,-0.048 c -1.70843,-8.43373 -19.06189,-8.20248 -7.63345,1.13752 2.32251,0.54757 6.01964,1.19483 7.63345,-1.13752 z m -234.48414,-6.57492 c 6.88125,-10.66611 -15.865977,7.85186 0,0 z m 94.75897,-0.74931 c -0.70907,-12.78185 -4.39644,-34.35659 -8.11923,-41.58899 -1.54362,11.74881 -6.67705,41.20938 8.11923,41.58895 l 0,4e-5 z M 186.90783,171.32926 C 183.13616,160.58946 173.65885,145.008 163,144.1061 c 8.29563,10.96216 19.81895,18.72137 21.78003,33.40934 7.7153,4.26832 2.23846,-3.29835 2.1278,-6.18618 z m 65.39563,0.13033 c 3.43666,-11.71097 -10.01097,7.3576 0,0 z m 69.62084,-4.06832 c 9.58544,-5.27257 29.85876,-14.00831 30.56149,-20.39667 -17.30938,0.42372 -27.827,20.62582 -45.00064,21.50409 3.00438,3.71653 10.55616,-0.33152 14.43915,-1.10742 z M 188.02475,144.4349 c -0.42189,-12.65462 -7.36168,-26.02654 -12.98512,-37.91041 -16.0311,12.25153 -0.37426,34.17384 11.91259,39.72201 l 1.07253,-1.8116 0,0 z M 313.01096,142.75 c 5.67051,-20.19377 -10.80111,12.05207 0,0 z m -162.94733,-8.48477 c -0.44458,-6.60817 -13.71231,-18.32507 -6.58632,-4.6357 0.99407,3.7546 9.98806,16.08333 6.58632,4.6357 l 0,0 z m 104.73863,-4.09383 c -3.37447,-17.50614 -8.37916,20.10353 0,0 z m 57.60357,3.32982 c 11.38743,-2.24158 11.78586,-22.27514 0.1429,-9.27854 -8.27913,2.76145 -13.98739,16.31701 -0.1429,9.27854 z M 92.25,132.60795 c 6.906937,-7.47709 -28.430202,-20.20885 -19.75,-11.64993 5.685331,3.73983 12.620279,14.6538 19.75,11.64993 z M 135,131.97029 c -3.69056,-5.94394 -21.43847,-13.33415 -9.0947,-2.07069 1.54611,0.42318 8.16007,6.12527 9.0947,2.07069 z m 108.77083,-0.78279 c -2.95437,-4.4313 -3.45894,5.05624 0,0 z M 300,126.5 c 5.51553,-7.33272 -13.1494,6.32176 -1.79688,1.4351 L 300,126.5 z m 45,-11.07743 c -8.57603,1.77364 -13.40627,16.7786 -3.04096,3.69142 l 1.58068,-1.78868 1.46028,-1.90274 0,0 z M 156.99442,123.75 c -2.9264,-19.67211 -8.74666,-2.3371 0,0 z m 94.99154,-4.97848 c 10.3343,-0.30291 5.48834,-14.65666 -2.25612,-4.27753 -9.36493,6.26429 -7.97539,5.83181 2.25612,4.27753 z M 332.93187,111.75 c 3.24664,-4.36054 13.27081,-31.976601 3.4072,-15.091764 -1.54126,1.955896 -10.54729,25.759764 -3.4072,15.091764 z m 18.63795,-0.79804 c 12.70867,-8.92261 -8.10196,-1.58193 -4.53333,2.81945 l 1.69607,-0.9294 2.83726,-1.89005 z m -5.95714,-8.67261 c -6.54325,1.48469 -2.43769,9.00019 0,0 z M 106.11236,98.22024 c -2.70968,-10.275618 -27.4462,-3.963813 -8.880546,1.546657 3.685306,-0.943195 14.840306,6.690973 8.880546,-1.546657 z M 276.72808,96.25 c -3.53664,-3.434477 0.82889,11.33646 0,0 z m -15.8886,-1.797053 c 4.81122,-11.394832 -6.09311,1.895016 -1.07181,1.798856 l 1.07181,-1.798856 z M 235,93.881966 c -2.51052,-2.450877 -1.90044,5.381742 0,0 z M 108.50555,85.006131 c -9.629228,-6.745186 3.53204,8.290877 0,0 l 0,0 z m 135.91043,-8.947623 c 4.78781,-7.623151 7.05047,-21.001382 -1.38737,-7.103122 -10.38233,5.451447 -6.03423,26.360914 1.38737,7.103122 l 0,0 z m -30.05187,-8.934047 c 0.18502,-30.67776 -10.34109,17.189002 0,0 z M 194,68.059017 c 3.31095,-21.5557 -6.50214,10.191409 0,0 z M 125,68 c -1.29667,-7.33137 -16.30286,-14.390383 -5.91574,-2.75 1.07166,0.888521 5.75977,7.73808 5.91574,2.75 z m 49.21667,-1.183333 c -5.33677,-2.056754 1.80062,6.675454 0,0 z m 66.88126,-3.11231 c 7.90927,-8.057053 4.15643,-11.305935 -1.44139,-1.67689 -8.74339,8.745241 -5.48174,11.195902 1.44139,1.67689 z M 199,67 c -2.69252,-4.029985 -2.35666,3.893393 0,0 z m 66.24415,-17.648026 c 2.0408,-8.659293 27.59371,-27.353811 6.33485,-15.822388 -9.54261,4.272967 -14.21024,15.467569 -11.51595,24.746643 2.33564,-2.589528 3.58699,-5.88062 5.1811,-8.924255 z"
       id="path3003"
       inkscape:connector-curvature="0" />
    <path
       style="fill:#a34958;fill-opacity:0.8538813"
       d="m 292.66667,316.33333 c 2.3119,-7.6425 -4.88975,-10.86876 -5.56957,-12.78303 1.616,-15.18864 -7.25066,-29.72625 -8.86682,-44.6034 -10.95398,0.59329 2.27401,26.03933 -0.8651,30.56588 -4.25285,-3.9318 -8.28208,-23.67449 -8.07612,-7.18117 -0.69393,14.27457 -3.76812,-23.35054 -7.06372,-2.64867 0.002,15.50707 -21.19571,9.56125 -9.68835,-2.93635 7.22682,-7.47761 10.3885,-19.8945 -3.65674,-13.11119 -6.91375,2.00296 -15.29973,14.59725 -17.33807,3.52609 -6.62263,2.46699 -21.73702,-2.82229 -16.83673,-8.54879 13.66656,12.52135 27.95891,-5.6762 43.79455,-3.1127 4.55213,-14.42231 7.67035,-32.81831 -11.59795,-37.60131 -8.89443,-4.89016 -18.35322,-22.54645 -24.96165,-21.87072 -2.44537,7.31647 -6.35251,26.09776 -5.26075,26.95405 -1.93337,-7.92095 -16.01563,-24.55713 -11.46623,-5.73039 12.56359,16.43661 -10.07067,18.84985 -17.31487,27.85203 1.8611,4.78334 4.27793,13.45239 -2.12252,6.22301 -1.89332,3.62934 -5.0099,13.78793 -11.00829,5.97926 3.23744,-10.81294 -10.60779,-8.90499 -1.15612,-0.91949 0.15606,6.49742 -14.94609,-1.80329 -10.99925,9.07949 -6.1187,-1.87195 -20.97526,15.21842 -20.00009,4.71598 12.28972,-11.03734 -4.98617,-29.59389 -9.11436,-27.17158 13.97109,-7.02127 10.50278,-25.32768 -5.25326,-13.66989 -8.87849,-5.71665 -24.7672,-1.59526 -19.63891,-18.42268 0.0356,-11.31212 5.18815,-11.34712 13.8333,-11.97739 14.07108,-13.30094 -19.16825,-23.14941 -18.90048,-3.59143 -3.655829,5.68098 1.21581,29.09599 -7.315867,24.47498 -4.686245,-6.81133 -8.973294,-15.13123 -16.258761,-6.70347 -14.627947,-4.15478 17.007175,-29.63074 0.953684,-25.69951 -9.06837,6.40272 -8.544813,3.69626 -1.514886,-2.58567 8.180888,-9.20545 -26.288421,-4.72863 -10.953068,-8.21305 9.252292,-4.59163 23.575547,13.4919 21.235473,-0.57842 8.713438,-5.39955 22.137145,-7.91472 10.937475,-7.93099 10.89164,-0.59458 4.01903,-16.59248 16.8581,-8.57323 6.85912,-3.42383 -2.16321,-21.5002 6.9302,-27.37223 9.13175,8.09537 20.6442,-4.28344 7.32114,-9.45079 5.98557,-9.29503 -6.61988,-15.67976 -11.69605,-12.21993 -9.36155,-4.24579 -15.66393,-20.214684 0.053,-15.453298 3.37963,-1.637024 -7.71854,-12.765602 2.05578,-8.879884 3.43699,5.024825 15.34094,11.043916 7.81309,0.364134 -6.49304,-12.759286 2.7564,-7.10434 5.57759,0.973766 6.26597,8.697175 7.71562,-0.124313 8.30003,-3.810138 10.83589,3.510612 10.41026,-9.836344 21.86845,-10.463633 8.6679,-7.165181 14.73538,-0.623122 16.95339,6.563499 3.2575,-3.57015 8.16494,-16.897461 7.96141,-4.183264 6.67008,1.345586 9.2541,-2.532449 11.83563,-5.54992 4.23148,7.61693 12.99511,13.849697 13.72163,0.592962 9.15477,1.457857 16.84092,17.496863 25.10016,14.466933 3.14953,-7.320427 7.80081,-13.087208 13.83866,-13.090139 4.57066,-7.601774 9.54388,-17.399893 13.34413,-8.294924 17.88733,-3.173368 -17.2878,11.049472 -2.31041,12.459067 5.19806,-6.880509 5.98235,13.949557 -1.49198,7.063882 -8.50484,2.868462 -18.86449,32.278677 -3.85665,17.137387 5.22876,-8.493418 15.55198,-17.87739 12.92342,-1.460627 -0.55311,7.154207 2.09954,20.135097 5.21587,6.590197 7.40679,9.04039 7.54442,-12.148062 10.1073,1.7742 1.74267,10.84453 16.30545,-10.170272 20.92862,-4.02429 8.84211,-21.371404 22.27869,12.69212 5.08561,15.62286 -6.08722,2.08631 -16.03434,16.39263 -10.06329,2.8132 -9.87105,-4.56848 -28.55106,18.68835 -8.85856,10.01431 8.64288,-0.33239 -2.72027,13.27799 7.79934,7.01313 9.52293,-0.59988 -2.63733,20.27107 9.25535,8.54088 7.26179,-7.02429 1.99133,-19.62056 16.6576,-14.52007 7.00246,-6.30055 16.28859,-9.71235 13.11633,3.79927 6.84741,-0.29772 6.72485,-10.94289 15.5629,-5.40687 10.11868,-2.05238 12.10855,2.40097 1.727,4.6819 -3.26495,5.9932 -6.09946,5.80417 -9.32831,3.76631 -9.20306,5.26619 -23.56057,20.11953 -38.06635,25.84794 -17.00999,4.92482 13.15354,8.90056 17.98497,2.55596 7.18558,-6.26575 17.88169,-4.517 26.07882,-13.09414 1.69118,2.94371 -21.53738,19.4862 -2.29335,17.08589 5.71093,-1.09345 14.75773,-1.94005 4.36142,2.42274 7.19753,9.75519 2.86505,11.12497 -5.64935,4.35685 -10.30537,-7.21438 -14.91482,8.76089 -12.62099,7.53105 -11.84911,-2.18674 -5.9436,20.4471 1.22577,16.969 4.91359,2.13305 7.56786,-4.22376 12.31794,2.50094 6.77608,-1.59461 11.17497,-13.30099 18.72289,-12.42255 -6.25842,3.43177 -16.88672,11.48963 -2.12393,9.23414 2.81142,-0.50797 -25.05921,9.68848 -13.45535,13.9956 5.24553,-2.30099 26.0089,-13.54092 23.80026,-5.08 -7.11211,11.03215 -30.5226,2.84525 -32.32631,15.07469 9.92637,-0.3232 39.33027,-7.8305 33.8906,7.71413 -17.06643,0.38602 1.4613,28.0605 -17.46229,19.50661 -14.49499,-9.09606 -12.49387,6.1686 -1.30357,10.42239 11.33149,6.63162 -7.07916,13.5596 -11.03165,4.67977 -11.3103,-4.04457 -24.26743,12.47074 -36.67831,2.08348 0.23562,14.19581 42.07048,5.07658 21.77683,18.23393 -6.5165,2.57748 -24.21663,-8.79566 -20.09318,1.82612 -10.8244,-1.60072 -4.26114,0.19971 -4.30205,4.68648 -6.63867,3.90795 -9.47349,0.49799 -13.8523,4.27664 -8.421,-14.71318 -2.38839,15.03499 -7.16295,16.32821 z m 12.48718,-25.48718 c -9.75399,-6.99054 7.69868,9.68163 0,0 z M 294,284.62244 c -2.58009,-6.076 -4.64197,1.69871 0,0 z M 291,278 c -3.14893,-7.4655 -1.03612,6.84693 0,0 z m 17,-1.94098 c -1.86494,-4.97873 -2.40954,3.18442 0,0 z m -10.01604,-5.60121 c -1.41176,-10.74713 -11.06601,-7.79706 -2.94091,0.48714 1.29806,2.96 4.76638,3.71571 2.94091,-0.48714 z m -60.14981,-2.39752 c -2.9865,-6.39665 -2.69615,8.46217 0,0 z m 29.89109,2.13068 c 7.28102,-13.84988 -11.37987,0.9461 0,0 z M 311,263.14788 c 1.67855,-11.17129 -29.32411,-19.85325 -11.12702,-6.19044 3.01553,1.77737 7.26677,10.83304 11.12702,6.19044 z M 322,262 c -2.35444,-4.32728 -1.6427,3.99692 0,0 z m 26.57934,-5.45483 c -8.22105,-12.6268 2.03823,10.43201 0.99867,1.80038 -0.33289,-0.60013 -0.66578,-1.20025 -0.99867,-1.80038 z m -7.75979,-2.75814 c -5.00046,-9.2102 -17.7033,0.77343 -3.79763,1.67202 1.30259,0.67193 4.60854,0.7277 3.79763,-1.67202 z m -16.04574,-3.96559 c -6.74261,-9.08575 -8.87509,5.25713 0,0 z M 277,247.45034 c -1.04244,-13.29273 -11.13028,-4.87395 0,0 z m 82.29689,-2.97534 c -10.41625,-10.0964 -10.94772,2.71915 0,0 z M 321.25,241.5273 c -7.00092,-13.21384 -29.08901,-6.05576 -37.89245,-19.5728 -18.61297,-6.71478 -8.69606,14.44816 2.85494,14.97622 10.89908,4.78031 23.26132,7.04541 35.03751,4.59658 z M 166.67291,241.75 c 5.69533,-3.6596 5.19553,-22.90374 -0.65539,-9.234 -1.10771,1.79413 -6.23886,13.72797 0.65539,9.234 z M 357,236.15002 c -7.50721,-6.62565 -33.88163,-10.7062 -33.30353,-1.97957 10.87396,2.51538 22.21059,3.59313 33.30353,1.97957 z M 190.36163,233.5 c -3.04001,-4.86844 0.16841,4.80144 0,0 z m -38.01949,-8.50205 c 4.13644,-13.15043 -10.23953,6.59143 -2.0212,1.80505 l 2.0212,-1.80505 z m -12.00116,-0.99644 c 9.35872,1.90327 13.74463,-22.71931 3.81225,-9.32725 -6.84819,2.2297 -20.93821,17.94495 -3.81225,9.32725 z m 25.85543,-2.25459 c 4.79721,-10.52075 30.41837,-28.24478 13.71598,-36.76105 -19.52972,0.85773 -12.8119,24.07694 -18.54018,36.47996 -6.58276,9.44278 0.24919,4.77714 4.8242,0.28109 z M 159.5,218.4863 c -4.14595,-6.60994 -3.32109,7.90668 0,0 z m -32.34025,-1.42263 c -6.07953,-12.30909 -7.89916,11.16568 0,0 z M 193.92949,212.25 c 9.87098,-5.51276 7.54564,-22.32066 -3.44833,-11.62742 -4.34176,4.02367 -3.20842,28.92886 3.44833,11.62742 z m 156.09057,1.22583 c 0.58085,-8.13339 -7.81648,6.09554 0,0 z m -215.38119,-5.32919 c 4.57093,-8.26132 29.78021,-15.67394 20.47906,-23.97559 -12.0383,2.85549 -25.61105,16.37558 -27.38914,26.43264 2.57518,0.68532 5.11522,-0.75184 6.91008,-2.45705 z m -43.98824,-6.76927 c 8.606771,-2.691 14.66157,-26.11723 1.616819,-14.35028 -1.737201,3.41732 -14.94881,25.17847 -1.616819,14.35028 z m 165.1548,0.72489 c 7.43319,-4.23668 13.1699,-11.40072 18.66116,-3.03402 5.6822,9.07238 30.13693,-0.9497 12.68084,-4.23177 -15.54475,-6.12833 -31.64064,-10.93541 -48.19214,-3.01798 -22.86383,3.34029 9.08186,15.67194 16.85014,10.28377 z m -97.20439,-1.64883 c -0.91572,-10.54422 -5.9805,8.65759 0,0 z m 157.69728,-4.42067 c -9.36,-13.16516 -12.67252,9.74565 0,0 z m -107.89259,-7.92859 c 0.94649,-13.43306 -3.71511,-38.09363 -8.64858,-43.45855 -6.01749,13.44231 -6.52909,36.24457 6.01178,45.13914 l 1.37198,-0.41805 1.26482,-1.26254 0,0 z m 23.61571,-2.73706 c 11.6405,-11.12412 -12.10493,5.17177 -0.28016,0.17937 l 0.28016,-0.17937 z M 334,184 c -1.54331,-3.33597 -2.07829,3.67886 0,0 z M 188.47526,172.32904 c -1.72996,-11.58281 -18.94316,-34.23038 -25.884,-27.02391 10.9309,10.093 17.53436,25.39462 25.77271,35.01372 4.85783,0.93191 0.26901,-6.32508 0.11129,-7.98981 z M 112,175 c -7.15993,-9.21703 -9.73626,9.07671 0,0 z m 139.70072,-1.25 c 12.26935,-10.58013 -12.48313,-6.3269 -2.70837,2.25 0.90279,-0.75 1.80558,-1.5 2.70837,-2.25 z m 24.00965,-0.3656 c -11.83913,-7.65222 -11.969,6.76766 0,0 z M 117.05282,167.5 c -3.7681,-4.12329 -2.95958,5.5076 0,0 z M 120,163 c -4.9252,-8.07713 -2.79691,6.1395 0,0 z m 21.42579,-3.66722 c -3.06591,-12.84906 -13.03689,5.02945 0,0 z m 158.09689,-0.36948 c 2.76369,-17.85992 -10.96242,-5.04013 0,0 z m -151.19802,-2.62129 c -0.20071,-8.52585 -7.73398,3.50156 0,0 z M 253,150.87756 c -4.28335,-5.28776 -1.88225,9.88938 0,0 z m 19.06574,2.08726 c 5.71295,-5.27551 -4.43382,-1.67605 -2.34197,0.56738 l 2.34197,-0.56738 z M 188.8,146.8 c 0.26017,-14.11504 -4.75224,-38.9453 -18.34943,-42.2985 -11.85068,14.16056 1.25133,33.20339 13.22002,42.41463 l 2.45695,0.54381 L 188.8,146.8 z m 54.45,-1.46228 c -5.81974,-2.04216 -0.86185,2.17782 0,0 z M 153.97891,141.25 c 1.51202,-13.99314 -23.71885,-30.6372 -10.91536,-7.36786 1.75471,4.19532 5.55962,9.61805 10.91536,7.36786 z m 92.13732,-2.97773 c 8.79545,0.87261 17.31903,-2.57427 11.05637,-12.30326 4.63529,-7.13367 4.82007,-27.117977 -5.36114,-13.91184 -9.82032,8.20578 -15.03962,-12.733743 -19.76584,3.50499 -6.85151,10.74887 9.70918,14.33791 7.42262,4.10561 9.20476,1.76537 12.58133,10.96429 0.99221,9.70351 -3.79945,6.28001 -9.84808,-2.11087 -7.77595,7.53137 3.6854,2.73807 9.2514,3.11806 13.43173,1.36962 z M 263,128 c -2.58145,-4.3634 -2.41646,4.24388 0,0 z m -105.10566,-1.91354 c 6.79368,-9.09911 -13.58614,-18.11744 -6.39364,-4.22032 -0.324,3.33642 3.16326,7.07287 6.39364,4.22032 z M 303,118 c -2.35444,-4.32728 -1.6427,3.99692 0,0 z m -158,-2.51357 c 2.24416,-8.33077 -12.57044,-13.1729 -4.79835,-2.23746 0.51032,0.62891 4.48403,6.24731 4.79835,2.23746 z m 122.20084,-3.59392 c 1.22056,-7.91029 -9.10984,3.51845 0,0 z M 305,108.94098 c -2.97319,-3.59725 -1.13844,5.14366 0,0 z M 171.35188,96.25 c -1.42339,-14.924152 -5.74492,8.89539 0.0364,1.344926 l -0.0247,-0.913037 -0.0117,-0.431889 -4e-5,0 z m 63.53432,1.167538 c 11.77676,-18.755857 -13.5505,5.294832 0,0 z M 171.80796,81.594137 c -2.90804,-22.854002 -5.59415,16.348645 0,0 z m 18.64933,-0.525039 c -0.0201,-5.583631 -3.67354,3.427377 0,0 z M 173.69018,295.51232 c -3.93251,-6.5533 0.50912,-19.32091 1.19877,-5.33968 -0.27064,0.71053 0.73027,8.67107 -1.19877,5.33968 z M 261,293.55902 c 3.07614,-9.40571 3.06073,5.17993 0,0 z M 172.15789,271 c 0.74607,-5.55623 0.74607,5.55623 0,0 z m 20.96399,-23.90351 c -2.5313,-6.73751 7.81613,3.46542 0,0 z M 69.015313,230.80902 c 1.210072,-7.58955 2.355863,2.85268 0,0 z m 2.839086,-5.48147 c 2.871751,-6.48426 11.402696,-12.25316 4.430057,-2.93094 -0.828912,-0.49432 -5.813498,6.43042 -4.430057,2.93094 z M 49,210.5 c 7.643342,-8.33804 -5.341611,7.85069 0,0 z m 13.306905,-6.59309 c -4.422182,-6.591 -9.719081,-9.33539 -16.02892,-6.40911 7.095978,-6.24192 24.212103,-6.85779 17.932081,3.41812 2.408592,2.01756 0.630091,4.17026 -1.903161,2.99099 z m -25.664239,-1.39572 c -17.65741,3.76656 -1.419042,-10.14767 0.832316,-5.72677 -1.632534,5.06118 8.502731,4.30075 -0.347195,6.71048 l -0.485121,-0.98371 0,0 z M 381,203 c 3.49659,-4.33831 3.92225,4.24209 0,0 z M 40,193 c 2.354437,-4.32728 1.642711,3.99692 0,0 z m -23.403841,-2.73717 c 5.067078,-7.83405 35.762648,-7.67325 13.124296,-4.06751 -4.3931,1.29512 -8.570467,3.34238 -13.124296,4.06751 z M 50,182.11663 c 7.335879,-6.47902 5.638162,3.39921 0,0 z m -30.800746,-6.03984 c -2.705951,-5.41054 34.606078,-0.27192 13.767796,0.46117 -4.590011,0.3236 -9.204933,0.0935 -13.767796,-0.46117 z m 31.031762,-1.8016 c -7.428252,-4.32909 10.63255,1.23622 0,0 z M 344.5,157 c 2.89678,-3.60646 0.4353,3.64039 0,0 z M 360,141.5 c 0.93837,-11.96323 16.24158,5.93569 1.04866,1.01916 l -0.655,-0.63657 L 360,141.5 z M 94.5,137 c 4.056663,-4.04912 2.653603,3.16673 0,0 z m 280.12956,-1.77224 c 6.74552,-9.55954 3.7426,4.34939 0,0 z m -266.49032,-0.82077 c 3.93947,-9.94225 -18.937759,-15.77259 -9.709569,-3.22609 -6.438239,-2.89654 -15.559994,-17.90974 -1.696234,-9.85517 12.652913,0.6326 4.130193,-15.94469 -2.410155,-4.44045 -19.95688,-9.14729 11.709688,-23.174575 18.604508,-6.98423 7.96953,6.22467 11.72947,30.02508 -4.78855,24.50594 z M 78.5,131 c 0.210371,-4.05556 4.327801,4.80054 0,0 z M 70,128.12244 c 4.588893,-8.58106 5.207144,2.45023 0,0 z m 253,-0.68146 c 2.53373,-3.8505 0.48497,4.66396 0,0 z M 348,122.5 c -3.35144,-12.29112 17.12379,-4.98159 22.97011,-7.70957 C 365.3699,120.22977 356.20875,125.15437 348,122.5 z m 12,-10.55423 c 0.89293,-8.38442 14.86251,-12.766207 6.01082,-2.25471 -1.14419,1.17303 -4.40972,5.1743 -6.01082,2.25471 z M 89,101 c 1.26394,-6.084637 1.360219,5.99182 0,0 z m 190.80083,-1.560784 c -5.14602,-8.503295 2.43379,-15.841977 4.82385,-4.277137 -1.21671,1.884573 -3.56961,2.4329 -4.82385,4.277137 z M 112.02976,82.071855 c -11.00833,-11.144355 10.72818,-0.05569 1.00456,1.91539 -0.33485,-0.638463 -0.66971,-1.276927 -1.00456,-1.91539 z M 106.55214,65.75 c -5.9813,-11.096679 5.0644,-1.889523 0.57494,0.882812 L 106.62863,65.867444 106.55214,65.75 z M 176,59 c 2.35444,-4.327283 1.6427,3.996917 0,0 z m 47.05057,-0.757969 c -5.21384,-8.667884 10.07384,-16.408609 4.47618,-2.987881 0.7015,3.010274 -2.06586,6.480404 -4.47618,2.987881 z M 249.07029,56.75 c -0.22978,-9.539318 4.62798,1.808419 0,0 z"
       id="path3001"
       inkscape:connector-curvature="0" />
    <path
       style="fill:#741122;fill-opacity:0.86301371"
       d="m 287,304.58187 c 7.79392,-4.00864 -2.50314,-23.99941 1.84838,-21.19942 10.13194,8.23512 3.89261,-13.9741 1.63827,-10.88949 15.13496,6.83651 6.22667,-15.17812 -3.48092,-14.88878 -11.76433,1.99725 -6.35282,-21.25634 -15.9681,-16.92137 0.46267,7.77353 1.69396,18.64795 -9.3556,19.76007 -2.3409,-8.69791 1.28073,-22.79886 6.10961,-32.37268 3.03321,-6.69138 8.39246,8.08492 13.86783,9.37569 11.47896,6.93012 13.44017,23.72468 27.13817,27.5911 5.54416,-0.21038 6.34367,-6.01615 12.24958,-1.70127 7.47125,-2.90307 -10.11265,-8.05737 -13.03365,-11.02398 -7.17487,-7.94156 12.4707,0.89693 16.3562,4.78195 8.22637,7.92857 23.43854,-8.0567 25.55536,7.87756 -7.38045,4.04641 -18.41098,11.87783 -28.57837,6.45285 -10.61951,-5.52977 -4.64902,7.28391 2.17996,7.68901 4.76352,2.88735 27.57425,1.83352 13.7716,9.15666 -8.86642,1.18945 -19.5325,-7.29402 -25.814,0.43794 -6.41187,3.05882 -13.33103,-7.81853 -15.8232,3.51609 -1.65903,4.36873 -1.32934,14.41461 -8.66112,12.35807 z M 308.81955,275.75 c -5.01083,-11.20318 -6.17962,8.43015 0,0 z M 330,270 c -2.42443,-4.4818 -2.60161,4.34115 0,0 z m -22,-0.94098 c -2.71782,-6.69559 -6.04782,4.67599 0,0 z M 318,266 c -2.42443,-4.4818 -2.60161,4.34115 0,0 z m 26,-2.3 c -4.37914,-12.00115 -7.64826,4.76348 0,0 z m -93.85,20.35 c 1.86287,-3.84014 1.85461,2.44535 0,0 z m 7.85,0.068 c 0.40309,-4.3412 3.13332,0.88085 0,0 z m -5.36163,-5.618 c 2.6515,-5.43752 0.31478,4.11059 0,0 z M 259,270.76445 c 1.54205,-14.64158 6.52781,4.30129 0,0 z m 100.97994,-4.28862 c -0.46988,-5.36305 7.2387,5.16122 0.54152,0.30541 l -0.54152,-0.30541 z M 149.25,262.23173 c -6.32706,-5.75188 10.88884,-6.1061 2.18831,0.14275 -0.72944,-0.0476 -1.45887,-0.0952 -2.18831,-0.14275 z M 238,260.5 c 3.63665,-6.7227 3.9024,6.51174 0,0 z m 114.4838,0.20687 c -1.7557,-6.46381 3.89346,1.06285 0,0 z M 157,252 c 8.57528,-9.20278 -1.52315,7.87845 0,0 z m 190.47796,-0.25 c -16.06771,-3.98858 -26.89728,-19.85116 -44.13707,-20.71937 -9.63413,-0.0717 -17.3068,-8.21172 -14.07643,-17.30514 -9.37385,4.2451 -12.54453,-8.65192 -3.34906,-10.28493 8.54208,-3.51193 11.39353,6.13963 15.19498,8.59695 6.2718,3.30853 25.3307,8.68912 18.70759,-4.26193 5.33509,-3.34589 16.17414,-0.26908 22.27051,1.94378 3.38626,7.32394 -7.15094,14.75747 -9.57702,6.16019 -6.78932,5.77618 -15.36721,1.55153 -21.79365,4.64823 1.68337,10.13783 25.0829,-5.26749 20.42628,6.32742 -5.7427,0.11771 -17.52024,5.75816 -6.30914,9.51778 8.16783,5.81929 21.19332,0.18 26.84314,8.94382 -3.38012,1.13502 -7.87158,-0.2127 -3.09492,6.02507 3.96076,4.13908 -1.15741,1.23836 -1.10521,0.40813 z m 17.85884,-3.90914 c -7.53031,-7.89616 4.78455,-19.66257 6.9513,-5.60863 1.32922,4.57309 -2.35391,9.27959 -6.9513,5.60863 z m -185.69781,-0.5352 c -14.45394,2.51235 -8.00763,-29.09046 2.66365,-17.14629 -1.16108,6.90096 -6.63299,-5.73239 -6.92277,3.95322 -1.75359,4.65507 5.49613,9.90322 4.25912,13.19307 z M 297.5,247 c 2.84851,-3.6622 0.46036,3.57848 0,0 z m 26.19655,-0.9292 c 1.36361,-4.46797 6.12427,5.10185 0,0 z M 140,243 c 3.15559,-4.68866 0.91659,3.94638 0,0 z m 218,-2.01673 c -4.74589,-0.44478 -9.76465,-4.17668 -1.23449,-2.35702 1.85072,-0.24867 4.37807,1.78611 1.23449,2.35702 z M 182,239 c 2.83378,-6.76232 1.33275,6.04982 0,0 z m 185.62162,-7.71172 c 3.20628,-13.29913 11.28604,2.1235 0,0 z M 162,230.08179 c 1.59836,-12.49518 7.59158,2.74539 0,0 z m 33.57085,-0.26841 c -4.80649,-10.77052 5.48558,-4.91854 0.55688,0.70473 l -0.55688,-0.70473 z M 202.57487,222.5 c 1.99856,-8.16619 1.06473,6.35498 0,0 z M 261.25,222.33772 c 1.58089,-8.53936 -7.96127,-8.5714 -11.92142,-8.0094 0.62377,-7.49389 -19.69791,-4.68366 -17.55931,-15.03449 10.96768,4.7761 23.71521,8.38038 35.14581,8.66424 3.1376,3.4414 0.72176,17.35348 -5.66508,14.37965 z M 214.41545,216.75 c -2.08397,-9.96674 -13.86363,-13.56029 -12.82132,-1.21364 -10.00132,-6.92475 9.25432,-17.37508 -4.06618,-19.59978 -10.21172,4.15838 -3.54435,-12.59185 -14.77143,-11.32805 -3.99949,-2.64284 -23.91767,5.95498 -13.97739,-1.92982 7.91806,-3.13089 -14.11278,-5.52302 -2.92375,-9.93122 7.71623,-3.14017 -8.17108,-6.76505 -11.69792,-6.62701 8.6532,-4.35803 21.52117,2.71145 25.72347,9.1518 6.55442,10.24556 16.93443,2.53552 7.8385,-6.29606 -4.65878,-6.81149 4.08261,-14.5866 6.95317,-4.62286 0.24208,8.44469 2.7253,33.0053 14.97611,22.41356 1.42036,-12.01272 -4.11167,-23.88491 -5.17504,-35.91781 0.59923,-8.11179 -5.97755,-17.61017 -2.99147,-23.78133 7.73662,3.10206 8.51184,-22.23398 15.91732,-10.91692 17.5125,-1.30342 2.00148,16.95402 6.10069,26.55458 0.23905,7.89139 -5.15674,8.82743 -6.51425,5.30845 -2.30257,4.39938 -2.29424,18.77921 4.64723,10.54299 3.0426,6.52083 19.37717,12.93503 12.29387,1.8654 5.51398,-2.60345 6.31686,-6.16366 5.1056,-9.38046 12.4525,-3.55914 10.32922,16.02258 7.10122,22.91044 11.29416,6.2377 9.19576,-16.46304 21.41959,-15.62039 8.61693,1.86417 8.29283,-11.12718 18.17041,-5.23642 3.97103,10.42443 -16.49476,10.6405 -19.95895,18.63667 6.83731,12.17005 17.52639,-7.928 27.30475,-6.09083 6.03361,-2.8315 -2.08905,16.45908 6.37451,8.28805 6.23721,-8.0883 5.34305,7.69155 -2.12432,3.76257 -11.69952,-2.73833 -20.64762,11.22327 -4.55771,10.52276 5.3258,0.0134 21.48781,-4.48998 13.1008,-9.62608 5.74688,0.69131 12.11343,-2.75691 12.21527,-6.15891 3.26677,0.20518 9.17511,5.21734 3.15972,6.71147 8.2534,0.92466 5.07838,6.64867 -1.79489,5.81145 7.85148,11.78127 -9.11047,-0.32841 -14.33014,2.97224 -12.09491,4.58064 -25.10552,7.04312 -36.11091,-1.54256 -11.54012,-8.56409 -19.62587,5.05532 -30.98231,3.90681 -8.10865,-1.06132 -8.89768,9.13194 -15.55724,2.62287 -2.96661,2.70282 -2.38414,5.49105 -6.71973,7.37138 -2.4899,2.84114 3.74283,19.96819 -1.32728,16.46666 z M 231.27287,187 c 6.28815,-0.15588 13.5003,-15.47752 2.74459,-8.08198 -3.45914,0.81898 -13.24502,13.72948 -2.74459,8.08198 z m -16.60163,-5.5625 c -1.40318,-9.65337 -6.01749,5.04574 0,0 z M 225.8,175.8 c 2.17418,-8.82211 -10.57591,4.25188 -0.18623,0.13571 L 225.8,175.8 z m -3.8,-8.85902 c -3.21754,-3.11198 -0.97432,4.64374 0,0 z M 278,160 c -2.63628,-3.35991 -2.64281,3.9134 0,0 z m -63.01531,-36.75 c -0.11409,-8.05839 -4.45075,0.29908 0,0 z m 57.82781,94.06689 c 3.40157,-1.89405 2.44861,1.11883 -0.10933,0.58941 l 0.10933,-0.58941 z M 143,211 c 3.15559,-4.68866 0.91659,3.94638 0,0 z m 158.6875,-2.64583 c -1.06899,-6.03251 6.1024,1.91585 0,0 z m 8.26864,-1.43613 c -1.67948,-8.75125 15.06729,-1.5924 3.86376,1.11784 -0.91369,1.75095 -3.52624,0.36516 -3.86376,-1.11784 z m -164.77946,-0.58517 c 3.50832,-7.66709 3.0712,5.88912 0,0 z M 299,203 c 7.34829,-7.271 7.84477,6.46258 -0.10048,0.95305 L 299,203 z m -149,-1.46482 c 3.14151,-5.39991 5.13746,1.43057 0,0 z m 36,-0.95185 c 3.02449,-6.02245 3.26113,4.18621 0,0 z m -28.41568,-7.4469 c 0.73771,-9.67115 14.3348,1.38944 1.81216,0.73096 l -0.99163,-0.15436 -0.82053,-0.5766 z m -12.88247,-8.76791 c 5.80771,-7.30483 -16.10695,-2.03328 -5.53921,-7.71961 4.19014,-1.09652 15.04016,-9.02013 10.13691,-0.0198 1.5539,4.45346 2.07406,9.95068 -4.5977,7.73941 z M 160.5,183 c 1.67997,-3.66715 2.50481,4.13667 0,0 z m -7.25,-1.68933 c 3.51266,-1.5414 4.3946,1.66847 0,0 z M 142,170.33386 c -14.90763,-1.56399 10.02309,-6.85548 2.02576,0.54867 L 142,170.33386 z m 158.5,-4.83407 c -3.70937,-10.5998 23.57289,-11.02825 10.93316,-1.52053 -3.29532,1.74703 -7.28498,2.738 -10.93316,1.52053 z m -13.0516,-0.58328 c -0.13605,-10.2675 9.36401,1.55728 0,0 z m -93.90569,-6.84741 c 0.18955,-5.44165 2.98053,3.13037 0,0 z m 59.63017,-1.72829 c 4.244,-6.91987 3.25657,5.49491 0,0 z M 223,154.86728 c 3.47323,-10.30353 11.24152,2.14575 0,0 z m 34,-1.71229 c 3.1686,-5.72579 6.6699,-4.68716 0,0 z m 55,-0.5 c 3.80002,-12.73612 7.16274,3.66753 0,0 z M 183,150 c 4.05759,-4.89127 5.61557,4.93853 0,0 z m 9,-24.5 c 2.50602,-5.14551 1.58703,4.54744 0,0 z m -30.80479,-8.25 c 2.95089,-12.9507 2.49751,13.1862 0,0 z M 204.5,112 c 0.87646,-4.01538 2.12077,3.98222 0,0 z m 15.5,-1.53138 c 1.76223,-5.23776 3.77571,4.15683 0,0 z m -27.50034,-1.46968 c -8.1729,-3.57003 -0.35906,-15.70535 0.8754,-7.90299 12.91414,-14.925944 6.47716,15.90388 -0.8754,7.90299 z M 204,105.17856 c -0.35478,-7.311577 6.73955,-7.539745 2.32501,-0.3714 -0.22356,1.73098 -2.62532,3.18966 -2.32501,0.3714 z m -58.75,-4.14205 c -5.26728,-10.72556 9.64287,6.4148 0,0 z m 76.82895,0.38016 c 0.88655,-3.239459 0.51027,4.64016 0,0 z m -48.4889,-6.578909 c -0.20585,-15.768243 5.19048,11.161019 0,0 z M 208,92 c 3.32913,-4.672414 4.02,4.638439 0,0 z"
       id="path2999"
       inkscape:connector-curvature="0" />
  </g>
</svg>
