<?xml version="1.0" encoding="UTF-8" standalone="no"?>
<!-- Created with Inkscape (http://www.inkscape.org/) -->

<svg
   xmlns:dc="http://purl.org/dc/elements/1.1/"
   xmlns:cc="http://creativecommons.org/ns#"
   xmlns:rdf="http://www.w3.org/1999/02/22-rdf-syntax-ns#"
   xmlns:svg="http://www.w3.org/2000/svg"
   xmlns="http://www.w3.org/2000/svg"
   xmlns:sodipodi="http://sodipodi.sourceforge.net/DTD/sodipodi-0.dtd"
   xmlns:inkscape="http://www.inkscape.org/namespaces/inkscape"
   version="1.1"
   width="411.11194"
   height="293.84064"
   id="svg2"
   inkscape:version="0.48.4 r9939"
   sodipodi:docname="alga.svg">
  <sodipodi:namedview
     pagecolor="#ffffff"
     bordercolor="#666666"
     borderopacity="1"
     objecttolerance="10"
     gridtolerance="10"
     guidetolerance="10"
     inkscape:pageopacity="0"
     inkscape:pageshadow="2"
     inkscape:window-width="1861"
     inkscape:window-height="1056"
     id="namedview12"
     showgrid="false"
     inkscape:zoom="2.0089437"
     inkscape:cx="166.73058"
     inkscape:cy="183.68521"
     inkscape:window-x="59"
     inkscape:window-y="24"
     inkscape:window-maximized="1"
     inkscape:current-layer="g2987" />
  <metadata
     id="metadata8">
    <rdf:RDF>
      <cc:Work
         rdf:about="">
        <dc:format>image/svg+xml</dc:format>
        <dc:type
           rdf:resource="http://purl.org/dc/dcmitype/StillImage" />
        <dc:title />
      </cc:Work>
    </rdf:RDF>
  </metadata>
  <defs
     id="defs6" />
  <g
     transform="translate(21.846157,-6)"
     id="g2987">
    <path
       style="fill:#e8a8ad;fill-opacity:0.73515984"
       d="m 174.84806,298.97478 c -11.88693,-10.72672 -8.14409,-28.51841 -14.87351,-41.40088 -9.39904,5.57799 -22.48047,37.31081 -32.89573,13.29918 2.96985,-17.02843 20.53159,-26.31829 27.78174,-40.94253 4.55517,-10.33745 -7.51208,-18.78702 -7.41269,-3.68382 -11.16007,6.88213 -19.48225,16.68493 -20.54369,31.17534 -7.718,18.01545 -21.67291,-3.09196 -30.274004,-8.21597 -5.354898,-12.01103 21.846044,-20.45491 3.107153,-27.51926 -13.414372,-9.61508 -6.333299,-29.28478 -12.650194,-39.56735 -10.588376,6.58158 -21.347095,12.2253 -31.668732,1.86829 -13.127152,-1.16319 -23.311312,-7.58952 -23.920951,-21.4903 -7.036318,-0.95347 -15.964421,-8.77011 -12.755865,-16.38338 6.414752,-11.36332 4.471709,-21.15133 -7.562121,-27.09111 C -1.8087533,99.105867 46.428747,108.68639 29.996262,89.014809 25.043649,79.590532 12.168608,72.912649 22.265625,60.957531 22.073602,36.567827 51.250121,49.555909 64.280131,54.958843 69.218313,48.326722 47.728952,28.546317 58.116038,15.883962 c 15.972994,-6.8021258 30.437577,9.215222 36.0139,23.09547 6.547592,6.916249 8.275112,-15.701432 18.114442,-16.052077 17.25578,-13.7110584 24.81852,15.526647 15.62248,26.784781 -11.66525,14.288938 -11.07708,35.339482 0.79071,47.115312 11.72224,14.861842 16.82337,-7.53552 6.69063,-15.197146 C 123.96216,72.099436 131.00514,57.47793 145,63.017471 c -1.96347,-12.899968 2.64795,-24.637652 16.29372,-28.070807 17.91918,2.07577 18.74915,24.80349 23.87235,38.434945 7.56684,18.737425 16.23582,-9.984816 7.94543,-17.742052 -4.05974,-11.624662 -26.2923,-35.741175 -5.43388,-40.335526 14.99845,2.307513 30.5206,30.120846 40.50054,6.579907 2.8013,-14.6701633 26.57569,-22.9224588 25.636,-2.441497 3.31866,11.584738 -8.44485,26.757597 -3.07414,35.236892 11.36138,8.471161 7.78131,-19.934547 13.00785,-27.290581 6.1127,-12.970625 30.9844,-6.416553 26.2246,10.255653 2.83757,11.426841 -4.49225,39.452142 16.82128,27.829667 11.96434,3.57243 26.48092,-16.99646 34.06922,-7.65807 -0.0442,10.674233 20.93563,11.677687 10.41997,25.559701 2.37604,11.10214 38.56368,1.612481 26.23257,20.631067 -13.52847,8.40557 -30.87883,13.62452 -39.29172,28.05603 12.21995,12.87108 32.6365,6.63242 48.14244,11.82618 3.99554,9.6988 -16.19473,17.83639 -0.62609,27.34662 14.84549,17.16588 -25.179,22.65679 -7.4623,40.57371 7.4828,26.92582 -25.51762,9.29083 -37.00387,3.49563 -9.50566,-5.88771 -42.1657,-10.27953 -24.88125,8.14658 9.35857,7.59266 26.92256,32.98257 8.91368,37.67537 -17.7868,0.5594 -21.37067,-24.45897 -36.16868,-26.69919 -9.35458,11.47899 -9.00158,35.09464 -27.35483,36.50684 -19.46099,-2.36014 -12.80384,-28.38495 -10.00266,-41.68719 4.62054,-15.15086 15.6545,-30.60235 8.24966,-46.91822 -3.84239,-17.61657 -40.79821,-15.83806 -31.09424,0.63862 14.33071,-8.9439 32.84684,2.37074 23.90113,18.71564 -11.90585,10.10942 -32.96077,-0.32101 -42.49615,13.09557 4.00028,16.10638 23.13871,23.84717 29.865,39.18045 4.86786,9.06982 18.69132,27.42578 -0.98475,28.46592 -16.29297,-8.69792 -18.68112,28.24252 -34.95925,10.3744 -6.26293,-1.94933 -19.01582,12.11471 -29.41357,6.17505 z m 12.25825,-57.02162 c -3.92502,-2.74252 2.64418,12.38128 0,0 z M 151.98469,201.25 c -2.90973,-11.00255 -2.43697,4.42548 0,0 z M 345.5,176.11183 c -6.38708,-7.1111 -28.69832,-14.70133 -41.96333,-10.17117 8.66057,12.90265 28.32808,10.16085 41.96333,10.17117 z M 217.13922,160.08608 c 6.39656,-7.395 -13.68995,4.3611 -1.96456,1.19843 l 1.96456,-1.19843 z M 128,153.81181 c -8.80139,-9.47015 16.66356,-9.9824 2.93426,-14.81181 -7.84099,-3.48932 -7.57807,27.69471 -2.93426,14.81181 z m 94.36349,-7.01589 c 1.73857,-13.65761 -10.22935,-23.77127 -18.39296,-8.68297 -12.16233,9.66565 14.00386,12.72004 18.39296,8.68297 z M 74,142.89249 c 10.874027,-5.51726 36.19134,-2.19938 38.79466,-14.26153 -16.740965,-8.29389 -34.79344,7.77593 -50.444783,13.39689 -9.745134,5.94693 9.772596,0.69697 11.650123,0.86464 z M 148.14007,139.5 c 9.45198,-11.81217 -20.84785,-6.94628 -6.22679,4.20635 2.54252,3.19584 5.14789,-2.56988 6.22679,-4.20635 z M 166,134 c -4.93019,-18.07733 -4.89618,17.22215 0,0 z m 114.99981,-5.1645 c 8.81806,-4.86385 26.79131,-20.56199 23.39732,-27.2531 -15.5947,7.34507 -36.51454,11.97113 -43.36391,29.8122 3.94732,4.46761 14.86795,-0.76539 19.96659,-2.5591 z"
       id="path3001"
       inkscape:connector-curvature="0" />
    <path
       style="fill:#d88b94;fill-opacity:0.65296804"
       d="m 178,298.33641 c -11.62691,-5.89602 -2.01302,-22.59245 -11.45769,-25.66548 1.02531,-11.03521 -10.11224,-23.82477 -16.16521,-8.5316 -1.18746,14.33326 -25.13308,21.1033 -21.45383,2.1282 6.12416,-14.74238 23.16727,-22.96643 27.09086,-38.66678 5.77335,-11.1422 -11.93637,-17.43757 -10.56936,-1.99551 -13.39143,6.90976 -17.73539,20.55856 -21.8386,34.63006 -8.0807,11.89718 -16.26263,-8.89217 -25.222196,-10.02723 -6.50028,-11.78601 22.238416,-21.91108 2.966046,-28.36587 C 86.834013,212.02391 97.156965,188.72201 86.945019,180.361 76.731174,185.8205 66.908773,194.38726 57.364052,183.07126 44.21086,180.84489 32.927752,176.41164 32.489362,161.4898 12.96351,159.54082 22.075371,140.7834 24.264545,129.12095 15.667747,123.08467 1.3649768,108.65194 20.553814,105.41179 35.367419,104.74024 37.779271,96.282736 29.658492,84.7387 23.031621,79.342986 12.405533,67.599668 28.511509,66.238023 c 14.915248,8.837198 25.3965,-17.777427 37.711478,-1.523012 5.511384,9.718403 7.824091,20.961291 13.900052,26.768652 -2.694986,7.62449 5.269346,19.900317 2.327554,6.983848 2.750828,-6.818488 18.833467,-20.135093 18.326057,-4.914278 -6.480732,0.905163 -9.403742,26.339647 -2.881125,13.557937 C 105.84363,104.61606 107.43657,96.124162 117,96.5 c -10.56415,4.22649 -17.847911,-20.237217 -3.47013,-13.446174 9.58429,5.202057 20.82792,31.780224 30.26342,13.284018 C 146.84643,85.09314 118.13161,64.898371 138.65487,64.310466 155.00953,70.137525 139.28351,39.447372 157,39.5 c 19.29705,-8.970818 21.56482,21.945606 26.3119,34.677801 2.35411,8.011591 6.87547,19.189121 13.04158,7.854231 4.90583,-2.95339 13.67724,-10.226394 12.24335,2.244254 -7.92103,12.405557 13.27122,-1.090252 8.21767,-9.039981 7.50006,-1.985626 11.77111,-11.809926 13.73114,-15.826624 -7.67413,-2.631819 4.86877,-5.485874 -6.33913,-7.414155 0.21326,-3.461979 4.51685,-5.304311 0.84382,-10.638086 C 232.86386,29.473765 233.03192,55.557198 236,51.5 c 11.03721,-10.032475 9.44842,-0.480803 16.90452,9.171376 1.39537,6.890131 -14.64044,5.808674 -1.45597,9.69326 6.025,-9.668233 8.41972,4.870033 7.34858,6.685065 14.32615,-1.531339 26.30889,18.212704 7.78577,23.044699 -9.36997,5.62245 -19.30146,14.58456 -23.971,20.66036 6.64502,3.39355 22.31935,0.27449 16.9649,12.05449 5.84313,3.24603 16.79159,5.49454 8.28326,12.10148 3.30898,7.96858 14.01492,5.81283 6.26523,-3.27985 3.27425,-8.61104 15.31516,-1.15561 7.00566,4.78128 12.50829,3.2235 18.88129,17.85671 23.75049,27.63339 -8.5945,-1.99441 -9.83261,3.87197 0.0298,3.74278 3.97427,9.84988 25.9696,-7.10939 25.04248,8.30867 -10.30389,8.17879 -24.91914,2.08525 -35.24641,8.4944 -10.19135,-5.72206 4.6295,10.85806 9.88816,8.79679 4.62547,3.8346 6.30879,-14.84308 16.4778,-7.49265 7.42227,3.17413 14.68888,-7.09641 8.53902,3.30211 6.41592,1.41211 12.46234,-2.91026 10.45971,6.55981 -8.77977,1.34731 -18.10325,2.8409 -29.02434,2.99127 -2.44004,6.45777 -0.80632,15.6981 -2.54614,20.79889 10.27036,4.9276 27.51066,15.9617 21.30793,29.79053 -17.23754,3.3732 -24.09274,-17.39958 -35.00825,-26.54315 -15.74925,-0.90386 -15.45147,21.47727 -22.54533,31.29072 -14.58225,16.01152 -27.93536,-7.7136 -21.29367,-22.0375 0.50062,-17.92047 15.02167,-31.86339 12.97138,-49.93505 -0.28604,-9.10728 -7.04581,-20.59077 -16.21797,-22.35006 -10.50544,-3.83652 -25.02652,0.4798 -21.77588,14.19552 11.31701,-0.69456 30.45916,-7.77275 27.64093,12.41624 -6.94634,15.18646 -30.15317,3.90788 -42.06588,13.97773 -6.39103,7.79831 2.81281,26.98856 -12.98549,23.27646 -2.59083,13.36614 -12.46927,-4.9175 -13.87962,7.75789 -3.95371,9.58779 10.94238,16.70177 5.60866,2.78017 3.27986,-5.79729 6.85733,4.63797 3.325,6.39538 3.88862,-1.88622 18.79889,-7.54091 14.17298,1.60426 -6.5981,-0.49726 -13.59595,0.98559 -4.741,4.58324 2.04354,9.00841 20.1568,-8.55295 16.72898,7.50613 3.66829,4.57602 -13.14646,-2.68434 -2.81398,4.92403 1.92266,6.62605 -5.02381,-4.14295 -7.76361,4.30683 -9.63414,-3.81706 2.52979,6.51126 5.53281,3.85365 -0.18134,8.56064 12.51945,-1.9619 6.78601,8.9033 0.56239,11.92502 -14.63599,11.69014 -16.58885,2.17037 -7.86578,5.26563 -16.81634,11.45754 -26.89667,9.9221 z M 186,285 c -3.68219,-4.02435 -3.83641,3.91193 0,0 z m 11.98272,-26.25 c -5.50303,-11.27529 -5.52098,2.21602 0,0 l 0,0 z M 311.5,239 c -0.26392,-3.66733 -3.00162,3.36878 0,0 z m -190.50982,-3.48817 c -1.47893,-6.53081 -11.42285,6.81644 0,0 z M 300.24561,228.5 c -5.87036,-4.14491 -24.64201,1.79178 -7.17319,1.0192 2.39921,-0.17908 4.92221,0.0401 7.17319,-1.0192 z M 298,216.03518 c -5.62539,-7.58624 -6.23685,3.99461 0,0 z M 152.36971,204.75 c 3.07532,-12.30518 -9.47518,-11.32542 -3.03872,0.54543 -3.5e-4,2.49177 3.64426,1.62568 3.03872,-0.54543 z M 278,205.63647 c 4.32381,-8.07385 17.37552,2.54799 8.22418,-9.17409 -5.891,4.46114 -15.56655,4.52053 -20.22418,8.84445 1.01339,3.86471 9.22527,-0.50855 12,0.32964 z m 37.26903,-0.29241 c -7.0791,-0.74967 -0.38867,1.60871 0,0 z M 98,191.94098 c -2.388589,-3.74796 -2.256617,5.32266 0,0 z M 276,191 c -1.49294,-3.1602 -2.25683,3.43448 0,0 z m 13,-3.5 c 1.45902,-5.68015 -5.3671,4.77013 0,0 z m 14.77083,-4.3125 c -5.30631,-5.24516 -4.07851,5.6637 0,0 z M 320.58179,184 c 4.925,-4.49665 -14.57299,1.66833 0,0 z M 295,182 c -2.39488,-3.99516 -1.59482,3.71895 0,0 z m -194.39583,-2.72917 c -4.152799,-0.85765 1.96935,5.65306 0,0 z M 136,176.62244 c -5.90615,-11.08681 -4.17371,5.76083 0,0 z M 282,175 c -3.4816,-3.95137 -7.99884,4.08252 0,0 z M 74.729167,168.39583 c -3.257641,-1.10202 -2.689262,1.85703 0,0 z M 282,166.31854 c -3.1242,-3.45477 -2.44818,6.71988 0,0 z m -62.28203,-6.99845 c 2.68155,-9.81649 -19.9912,6.21822 -4.99344,3.19872 l 2.87386,-1.38251 2.11958,-1.81621 0,0 z m -92.36315,-0.68037 c 2.17071,-7.50469 -1.47459,-14.41774 9.1009,-14.80168 -9.15216,-25.90663 -20.10839,24.85083 -9.1009,14.80168 z m -53.750653,-3.36889 c -4.152798,-0.85764 1.969359,5.65306 0,0 z m 185.814043,-2.87782 c 5.07716,-5.8253 -8.82294,0.94689 0,0 z m -36.98964,-3.96444 c 5.99441,-12.66111 -11.07029,-29.60165 -19.35421,-11.50489 -13.90489,11.28284 13.52746,14.8396 19.35421,11.50489 z M 62,147.20448 c 16.949266,-3.01346 34.157163,-6.36997 50.28382,-12.19741 6.88556,-18.17638 -24.909225,-7.78982 -33.564645,-2.92312 C 73.56607,131.25073 41.633712,152.07569 62,147.20448 z m 31,-0.31147 c -6.041181,-4.0468 -4.081384,5.45122 0,0 z M 145.63957,144.75 c 11.53222,-9.90322 2.84351,-17.3911 -8.95881,-11.75199 0.71241,2.96687 4.29648,18.9448 8.95881,11.75199 z M 188,143.10699 c -5.88415,-6.47254 -3.94556,4.06489 0,0 z m -20.70906,-4.42278 c 4.95323,-11.25318 -9.00945,-13.78781 -6.49731,-1.78585 0.56781,2.78332 4.7573,4.36973 6.49731,1.78585 z m 13.20274,-1.6908 c -10.36972,-7.68093 5.21283,9.15888 0,0 z M 65,136 c 3.232996,-3.08466 -9.438751,3.21973 0,0 z m 1.5,-5 c -1.344702,-3.73623 -4.197303,3.58316 0,0 z m -4.696329,-4.61366 c 14.034677,1.69641 -4.841755,-3.42223 0.794622,-11.88799 -4.28646,-1.55682 0.23409,11.85497 -7.534966,11.43246 1.535092,1.8807 5.359784,3.12497 6.740344,0.45553 z M 50.993154,125.5 c -4.437486,-5.89856 -3.15984,4.40549 0,0 z M 95,118 c -1.492945,-3.1602 -2.256825,3.43448 0,0 z M 58.356763,107.22081 c -2.161562,-6.40952 -7.764779,5.4677 0,0 z M 111,102.41667 c -2.87528,-4.358685 -3.47358,5.27228 0,0 z M 69.5,102 c -5.219571,-3.935744 -3.550416,4.01702 0,0 z M 69,95 c -2.692517,-4.029985 -2.356656,3.893393 0,0 z m 178.60961,-8.608086 c 1.68092,-12.878882 -9.16658,10.641927 0,0 l 0,0 z M 247,80.968615 c -4.11343,-5.597865 -4.37281,3.284422 0,0 z m -1.52551,-10.610926 c -7.03296,-3.201663 3.81127,5.723507 0,0 z M 235.5,277.95219 c -9.60577,-0.88843 -13.28345,-4.23606 -8.92349,-12.78302 -6.90941,-5.68274 13.34495,3.97552 1.86139,-6.45684 -7.02854,5.69028 -10.29968,-4.77306 -13.4383,-7.48947 13.78788,-9.82352 26.37514,7.42117 32.46864,19.04025 4.23098,8.88523 -5.7718,12.94913 -11.96824,7.68908 z m 2.24986,-10.53566 c -4.98382,-1.25517 -0.38554,5.8879 0,0 z m -19.60662,8.69316 c -1.27006,-6.20975 6.75347,3.45185 0,0 z M 211.5,248 c 4.19333,-3.52363 1.44015,3.60698 0,0 z m -10,-2 c 0.26392,-3.66733 3.00162,3.36878 0,0 z m 7.5,-13.5 c 2.53031,-5.20727 2.03781,5.01988 0,0 z m 158.75,-9.07197 c -10.64392,-8.3182 22.51556,1.4677 2.72483,1.09221 l -2.72483,-1.09222 0,1e-5 z m -13.72278,-9.89524 c -2.43581,-9.23321 8.09174,3.53309 0,0 z m -10.01665,-5.02006 c -2.33383,-11.32585 14.83044,3.12153 1.47475,1.00134 l -1.47475,-1.00134 0,0 z M 351,199.5 c 5.13737,-8.85896 4.87471,8.46238 0,0 z m -1.26443,-7.09777 c -0.328,-9.1563 11.52997,2.21146 0,0 z m 6.4561,-2.47723 c 3.19992,-4.02434 3.38321,4.22502 0,0 z m 14.55833,0.38567 c -3.63051,-7.69279 -28.53646,-11.89282 -11.93045,-18.06067 5.98795,-0.67544 38.76672,-2.10768 25.15135,14.61218 -3.22412,3.87081 -8.53493,4.9149 -13.2209,3.44849 z m -18.08333,-21.97734 c -3.52799,-13.75552 10.71375,3.19652 0,0 z m -34.09343,-12.48697 c -2.88274,-21.38526 18.44634,11.47185 0,0 z m 27.87291,2.06651 c 0.91255,-8.38511 7.36219,4.57195 0,0 z M 355,156 c 2.69252,-4.02999 2.35666,3.89339 0,0 z m -23.99969,-5.49963 c -0.42078,-12.62359 15.27599,5.47661 0,0 z M 363,151 c 2.39488,-3.99516 1.59482,3.71895 0,0 z m 21.58295,-2.86579 c -0.75954,-7.86584 3.2866,3.85326 0,0 z M 296.75,140.9199 c -6.92851,-9.89959 17.52828,-8.34561 5.54852,0.1567 l -3.06803,0.82576 -2.48049,-0.98246 0,0 z m 27.91667,-0.58657 c -9.90889,-11.37599 9.18974,-11.74083 4.98019,0.0902 -1.53685,0.6565 -3.52826,0.99227 -4.98019,-0.0902 z m -15.4637,-13.53036 c -4.63812,-11.21221 19.157,-4.4424 2.50239,0.63512 l -1.40164,-0.0433 -1.10075,-0.59178 0,0 z m -44.20133,-7.35002 c 4.58736,-7.73636 13.45315,-9.78741 2.5889,-1.54034 l -1.34613,1.05218 -1.24277,0.48816 0,0 z m -10.3991,-1.75331 c -6.83519,-13.08733 17.49549,-6.04476 4.89746,1.09441 l -2.67613,-0.20018 -2.22133,-0.89423 0,0 z m 70.64746,0.63808 c -5.69122,-13.88478 16.42257,-1.0764 0,0 z m -21.91284,-2.90149 c 3.03759,-18.980098 17.59657,7.25156 0,0 z M 278,109 c 2.39488,-3.99516 1.59482,3.71895 0,0 z m 74.15,-0.95 c 3.20216,-3.71896 1.03367,3.02922 0,0 z m -71.03167,-2.15438 c -5.1723,-5.2572 7.47562,-29.566126 11.34243,-17.072854 -6.69181,2.241324 -0.73686,21.898884 -11.34243,17.072854 z m 88.07334,-1.97062 c 3.19992,-4.024342 3.38321,4.22502 0,0 z M 321,102.45203 c 16.17362,-13.992454 -17.95018,5.88576 -6.52098,-9.402183 8.8244,-6.595503 14.77141,-25.180105 18.73027,-26.468104 14.66193,-9.084767 27.4351,15.803251 8.06522,21.193426 -6.98578,4.485883 -12.82,5.833867 -13.11048,14.732461 -2.28361,0.39915 -4.93385,0.97984 -7.16403,-0.0556 z m 55,-1.43298 c -10.0881,-6.144553 -0.99838,-10.227969 2.89947,-1.63282 0.65291,1.45618 -2.49014,4.01619 -2.89947,1.63282 z m -26.55385,-3.106182 c 0.30963,-8.643956 7.33144,4.470712 0,0 z M 342,95.416667 c 2.87529,-4.358682 3.47357,5.272293 0,0 z M 276.35878,80.492595 c 3.068,-12.970981 10.27828,5.950121 0,0 z m 39.34246,-0.124692 c -3.03896,-8.230334 10.00957,1.38951 0,0 z M 300.25,79.303399 c -5.52056,-11.246582 14.75597,-3.984671 0,0 z M 115.77235,77.75 c -6.72868,-3.161778 -15.70352,-9.880586 -4.53125,-13.5 7.38753,-9.879935 8.35621,10.963998 1.77074,3.06907 -9.1795,5.189506 10.17328,6.570754 2.76051,10.43093 l 0,0 z M 89.25,74.75 c 5.102614,-4.838615 6.30544,5.112122 0,0 z m 172.42539,-4.153548 c 0.0491,-16.200908 12.28805,7.249402 0,0 z M 79.957606,66.75 C 77.242179,62.507751 59.924671,54.598989 74.161158,54.910944 c 6.808796,2.784381 22.904209,14.349705 5.948285,12.981929 L 79.957606,66.75 z M 281.25,67.282394 c -5.89621,-13.294721 11.57843,-4.013916 0,0 z m -13.79384,-2.536039 c -0.28143,-18.908746 9.13572,5.692578 0,0 z m -44.94608,-1.762667 c 3.9447,-2.240725 2.04949,3.71837 0,0 z M 33,60.5 c 4.038776,-6.044978 3.534983,5.840089 0,0 z m 73.7145,0.08199 C 98.237745,52.795066 108.76936,45.257067 113,45.173856 c -15.92125,-3.006509 4.49459,-33.729489 14.41301,-19.75503 6.58256,10.238409 -0.74987,16.972646 -7.36407,20.252633 10.22811,-0.13417 -1.42401,18.290485 -1.69287,5.764861 -11.89254,-5.147979 5.3343,8.469724 -7.7177,9.06368 -0.23788,1.850652 -3.23374,1.975727 -3.92387,0.08199 z m 6.96861,-22.76949 c -1.79701,-0.713992 0.67278,4.26888 0,0 z M 88.75,60.283746 C 81.740993,57.015595 98.063138,54.099627 95.222429,46.473499 104.33166,35.788887 101.10524,69.532668 88.75,60.283746 z m 117.97629,-2.868145 c -8.41728,2.157006 -13.47914,-14.661655 -2.7743,-8.396751 -0.66162,11.204748 6.41165,0.283418 10.04801,-0.569598 5.6273,-15.208372 13.09276,22.187622 4.84309,5.648268 -3.76134,2.426828 -7.23062,7.227795 -12.1168,3.318081 z M 259,55.764347 c -1.86119,-11.665121 7.75958,-11.958881 9.7384,-11.841429 -11.45783,-6.201768 -1.67967,-27.986364 11.34527,-20.432629 10.48139,-4.346042 4.03268,10.837718 4.30603,15.947965 -7.06582,8.103345 -0.36992,-9.823967 -7.3236,0.971419 -14.89028,1.28161 6.43978,8.471201 7.69831,10.000777 -6.24976,12.430665 -15.39227,-0.911252 -20.20187,6.799699 C 263.14836,56.801915 259.03293,58.785345 259,55.764347 z M 35,54.5 c 4.038776,-6.044978 3.534983,5.840089 0,0 z M 81.25,54.294267 C 75.224226,47.108059 60.327483,44.196185 78.229772,40.302322 86.361455,40.600855 94.978216,57.544734 81.25,54.294267 z M 26,52 c 7.233772,-8.021237 4.227741,6.671707 0,0 z m 182.15,-4.95 c 3.30697,-3.745938 1.00386,3.042251 0,0 z M 239,43.740547 c -2.75443,-7.66785 -15.98461,-15.330615 -0.92009,-10.408368 8.73671,-2.677952 2.4908,14.098347 0.92009,10.408368 z M 187.84863,39.567124 C 190.84008,31.887171 171.60834,23.825441 184.79,17 c 9.20024,5.115024 7.13101,9.855563 14.1594,18.069714 -7.10216,-0.406954 -7.51002,0.308723 -7.94104,5.925809 l -1.85766,0.425525 -1.30207,-1.853924 z M 63.071712,37.25 C 58.907258,33.001536 53.173242,14.807051 63.262875,16.665954 75.674579,15.29496 80.038775,28.671314 82.392071,36.465071 80.38193,36.314837 71.02361,24.674377 71.5,32.361626 75.258105,33.078932 65.507894,48.4163 63.071712,37.25 z M 245.57676,31.241863 c -9.22006,-5.281385 -17.94589,-9.585258 -6.60995,-19.087492 15.92747,-16.2056424 14.99087,21.531819 6.60995,19.087492 z m -44.41668,-0.481782 c -3.87037,-7.521673 8.51844,1.516254 0,0 z"
       id="path2999"
       inkscape:connector-curvature="0" />
    <path
       style="fill:#d37886"
       d="m 178.75,297.2992 c -6.25635,-3.64273 15.42763,-3.95912 3.62015,-0.0389 l -3.62015,0.0389 z m 18.86407,-15.59159 c -0.1846,-7.71354 -12.56276,-16.86075 -9.70927,-18.75856 2.58134,-1.67895 0.42742,-13.91378 6.78351,-2.19905 5.26383,5.04674 14.64052,26.84101 5.29971,25.35419 l -1.16321,-1.98294 -1.21074,-2.41364 0,0 z m -64.21441,-4.13555 c -12.7643,-14.05121 11.98231,-28.32954 18.8531,-40.11861 8.84633,-8.14519 5.18746,-30.43424 -7.48149,-19.30147 -7.18103,-2.88559 -15.69903,-6.32234 -15.94446,2.84802 -2.66834,4.1267 1.36236,6.55337 -5.61655,1.0984 -14.68315,11.10092 19.35289,1.88613 19.32099,6.59932 -13.18326,2.49966 -15.82465,19.07339 -18.34784,28.33495 -6.21414,16.45291 -14.81615,-6.29856 -24.664119,-6.0967 -5.385389,-11.60422 7.753659,-18.30766 16.032769,-12.64779 12.52876,-2.02259 4.81649,-10.33751 -3.28495,-3.7362 -7.53815,-0.5875 3.77246,-10.64827 -7.72385,-11.4316 -10.840629,-6.05573 -17.470871,-28.06018 0.8982,-25.90403 -7.828234,-12.38662 0.17089,-28.4775 12.85832,-35.58672 4.05228,-6.23031 9.20099,7.13214 10.92354,-5.49472 -3.07167,-9.05809 2.79817,-9.27047 7.58377,-13.28822 -3.65146,-16.50138 -17.04396,6.04652 -16.33116,3.46659 -0.88533,-11.25487 -0.0454,-17.28172 4.71234,-27.3019 3.39459,-9.10599 20.94326,-24.919498 25.51783,-8.20587 -13.06865,3.09109 -2.32361,9.65722 3.35261,8.01895 3.64581,7.8758 -14.77609,4.03751 -1.76964,9.71161 13.5656,-0.29837 11.2821,-20.82121 -0.40416,-28.885997 -7.37918,-12.508846 -8.84092,-30.040568 -2.71028,-42.741986 9.2888,-6.139669 18.22836,15.65028 7.30198,8.54284 1.94385,-9.923486 -11.55785,3.103595 0.12847,3.786306 6.9519,6.122688 13.56531,5.747833 18.79812,1.959275 10.79928,5.411628 10.59369,29.772222 26.5968,23.256052 10.29521,-1.823678 16.34879,-10.812593 16.52439,-19.075389 15.04744,-1.383254 10.74123,-26.988737 27.52783,-21.457846 12.0907,6.461458 -10.32477,9.180036 -5.2502,21.262772 -1.57549,8.155307 4.34021,26.687813 9.89438,10.457927 -0.43941,-17.636096 37.36413,0.400342 19.81227,10.49968 -9.45333,4.811546 -18.502,11.891396 -23.82852,19.494806 -8.48898,-7.04305 -35.31689,17.63079 -12.72685,12.67776 7.50627,3.24561 12.31415,12.06409 20.86627,10.26668 -9.60344,8.05127 13.3399,2.84479 -0.37772,12.20533 -1.24056,5.69398 13.6409,1.25161 3.9362,9.23238 5.02832,11.14469 -2.6727,16.00619 -11.71191,8.89903 -12.52819,-8.65406 -31.29145,12.92797 -15.58006,18.17083 10.25367,-6.86942 25.22748,-6.22171 21.34249,10.10743 -8.87072,13.22682 -25.3558,0.24029 -36.46606,9.32505 -8.90089,4.49757 -27.86044,9.22627 -17.87682,21.481 -10.38631,2.44587 -13.36609,20.49078 -25.10853,12.73131 -14.4366,2.12374 3.84234,26.08049 -12.91517,14.71495 -15.92484,-0.90299 -10.35699,27.84406 -26.66233,22.1258 z M 119,229.55902 c -1.61514,-3.25789 -4.20897,2.14331 0,0 z m 34.02475,-24.12412 c 3.09804,-13.37338 -7.51032,-11.87066 -10.02475,-2.04189 3.34243,3.77335 4.44367,-3.05681 5.57697,4.37535 1.77797,0.81891 4.007,-0.46692 4.44778,-2.33346 z m 57.5836,-0.61022 c -7.55791,-3.59813 -10.08269,6.97993 0,0 z M 118,196.30887 c -12.6318,-7.04697 -2.59765,11.68011 0,0 z m 91.81068,1.00879 c -6.20914,-13.40804 -10.06778,10.74189 0,0 z M 125,193.5 c -5.2819,-5.34655 -4.27009,4.88294 0,0 z m 10.13922,-19.56451 c -11.28774,-5.30883 5.46042,10.65896 0,0 l 0,0 z m 61.58995,-0.53966 c -3.25764,-1.10202 -2.68927,1.85703 0,0 z m 19.72677,-11.07621 c 15.75191,-12.42394 -17.95265,-2.34917 -3.40026,1.34447 l 3.40026,-1.34447 0,0 z m 6.22961,-13.49393 c 6.81776,-15.46274 -12.8594,-27.35274 -24.29594,-31.23948 -13.6729,-3.89013 -10.14907,16.00824 -23.49332,12.81993 -8.44957,1.091 16.60171,22.56681 12.00976,9.50524 -5.84411,-7.47081 12.16151,-7.9875 16.41594,-9.76076 3.36441,3.45601 -13.21702,18.05388 2.88639,18.10437 5.16464,1.80433 11.51244,4.61149 16.47717,0.5707 z M 181,131 c 2.69252,-4.02999 2.35666,3.89339 0,0 z m 5,-3 c 4.4689,-4.68356 7.63511,4.17479 0,0 z m -39.85689,17.25 c 9.24526,-8.02859 6.28744,-19.91283 -7.09851,-14.0793 -7.54781,-0.49784 2.27888,21.19488 7.09851,14.0793 z M 166.8,139.8 c 8.05804,-13.0825 -10.66898,-16.48369 -6.48157,-2.33728 0.79608,2.58157 4.25256,4.92007 6.48157,2.33728 z m 89.05294,127.48349 c -8.52587,-11.10968 -3.56501,-14.32775 5.64706,-10.28352 11.01295,-6.47431 -2.81133,16.07831 7.5,3.00003 10.00391,-2.21693 -9.08849,15.14675 -13.14706,7.28349 z M 200,259.44098 c 2.19859,-3.61741 1.89422,4.86204 0,0 z m 124.35775,-0.45225 c -9.48638,-1.13101 -1.10339,-3.65054 -8.14328,-6.9973 7.08606,-10.86792 24.18962,8.07 8.14328,6.9973 z m -101.6639,-7.62821 c 0.0375,-7.29853 5.29186,2.81203 0,0 z M 273,249.71429 c 2.85677,-8.86724 2.55073,6.57202 0,0 z M 311.5,245 c -0.0839,-3.83135 4.57326,4.03538 0,0 z M 256,243.41667 c 2.87528,-4.35869 3.47358,5.27228 0,0 z m 19.01057,-4.90394 c -2.77235,-11.00376 14.70444,2.61632 1.60852,1.08495 l -1.60852,-1.08491 0,-4e-5 z m -18.65034,-2.01636 c 2.44828,-12.66279 8.55225,5.74825 0,0 z M 267.2,236.8 c -3.78328,-10.82155 11.76795,-2.365 1.25554,0.90674 L 267.2,236.8 z m 48.3,0.2 c 0.26392,-3.66733 3.00162,3.36878 0,0 z m -12.1771,-3.60092 c 2.35417,-9.06735 10.36686,6.60113 0,0 z M 132.70885,223.37552 c -1.42157,-8.22572 11.26631,1.57022 0,0 l 0,0 z m 156.26119,-2.4315 c 0.67153,-15.19674 12.02124,8.17836 0,0 z m -20.91212,-2.37423 c -6.21869,-11.92457 12.20459,-13.32403 4.13205,-0.95974 -0.71238,1.65945 -2.98284,3.38845 -4.13205,0.95974 z m 77.40096,-10.63632 c -0.0938,-6.09264 7.39786,4.1232 0,0 z M 283.36163,206.5 c 0.34072,-12.69733 7.96887,6.38689 0,0 z m 8.2098,-4.07143 c -5.23227,-14.27719 10.90921,4.74462 0,0 z M 272.2,200.8 c -3.05931,-17.60087 12.71809,3.49597 0,0 z m 40.81057,-0.28727 c -1.95378,-13.34163 16.34967,6.66067 0,0 z m 6.26757,-11.63459 c -2.44036,-8.90816 19.18426,-7.32114 5.42471,-2.35677 -1.21158,2.17155 -2.71992,5.12536 -5.42471,2.35677 z m 55.24387,0.38863 c -4.46493,-4.00901 -26.16027,-12.60306 -10.21899,-13.4556 13.66438,-7.84044 33.98366,6.2319 12.6473,13.91747 l -2.42831,-0.46187 0,0 z M 63.119373,185.3713 c -8.369687,-9.34847 12.397381,-1.41498 10.991366,0.56378 -3.852785,3.47396 -7.814159,3.97826 -10.991366,-0.56378 z M 264,183.5 c 5.04998,-6.04615 5.0017,5.87326 0,0 z M 92,182.94098 c 2.033042,-2.19464 2.264066,3.34627 0,0 z m -16.663187,-3.76101 c -8.763356,-5.68599 -1.695115,-8.07584 4.125556,-6.56336 3.938818,-12.63 22.142851,-6.05994 12.078658,5.80819 -4.731531,0.35451 -12.811558,3.75684 -16.204214,0.75517 z m -26.543879,0.27963 c -17.162135,1.91295 -9.463374,-21.209 -24.519881,-22.1931 -9.81049,-6.47075 2.045084,-26.18132 2.80972,-29.07922 5.347987,8.85419 10.624173,14.63501 19.411263,6.12995 7.05762,6.66432 10.721266,22.96353 -4.937903,24.97652 6.759849,1.11292 13.394725,19.04934 7.236801,20.16585 z M 260,177.5 c -1.67055,-6.17131 6.48578,5.71327 0,0 z m 24.75,-2.56394 c -10.14328,-13.54131 17.44559,-5.39205 5.24145,2.85283 l -2.55213,-0.51628 -2.68932,-2.33655 0,0 z M 59.438301,170.90017 c 5.384593,-17.62591 12.854862,3.69172 0,0 z m 232.564749,-6.79289 c -8.58261,-1.34342 -14.63035,-7.92254 -2.17189,-4.04198 7.11774,0.17378 14.93026,11.64243 2.17189,4.04198 z M 76.605372,157.46252 c -6.315508,-8.87714 16.234354,-8.46534 5.421041,0.24112 -1.585313,1.07634 -4.03157,1.2117 -5.421041,-0.24112 z m 242.645418,-2.60906 c -0.0437,-16.37214 11.82813,10.6817 0,0 z m -256.944655,0.50193 c 5.759597,-13.97871 11.171647,7.0964 0,0 z M 283.33256,153.6702 c -16.15575,-8.71357 15.73746,-3.92746 1.34158,1.08256 l -1.34158,-1.08256 z m 48.14893,-3.70015 c 0.92945,-8.64061 10.4889,3.64686 0,0 z M 107,144 c 3.68219,-4.02435 3.83641,3.91193 0,0 z m 169.66667,0.33333 c -1.79245,-14.94075 15.54463,2.13389 0,0 z M 297.25,140.33772 c -4.64239,-9.30832 15.8871,-5.32873 2.87996,0.4626 l -2.87996,-0.4626 0,0 z m 27.92473,-2.00651 c 6.00921,-6.52796 3.91189,5.77563 0,0 z M 322,133.56739 c 6.47136,-8.28281 7.63157,5.81805 0,0 z m -204.92105,-2.15072 c 0.97257,-3.5458 0.62175,4.34078 0,0 z m 140,-1 c 0.97256,-3.5458 0.62176,4.34078 0,0 z M 32,128.60699 C 36.126551,118.19122 52.932501,130.93917 36.065741,131 34.335051,132.11295 31.498722,130.61998 32,128.60699 z m 83.01276,-1.09162 c -5.2792,-2.92346 -14.44588,-9.50337 -2.04423,-4.10754 2.26912,-1.35979 6.58228,9.0095 2.04423,4.10754 z m 194.65391,-1.18204 c -1.20757,-12.35119 17.25265,-1.59071 0,0 z M 26.430874,123.88815 c -17.6586653,0.58066 -20.2895849,-21.78864 0.184829,-16.78839 6.275819,-4.9386 22.412198,-14.192869 6.408755,-16.271922 0.303278,-9.477824 -23.3222177,-21.364769 -4.674969,-19.81155 10.786137,-1.850951 19.758445,-6.754416 28.278905,-10.754706 12.421296,1.564607 18.488592,25.674589 16.579965,31.119595 -6.667486,-9.829538 -11.289154,6.876631 -16.55096,-4.304919 -1.970757,0.346479 3.573775,13.485112 -4.995338,5.93834 -4.835236,-17.019228 -4.498998,13.316532 -5.012139,13.416122 6.709384,9.0837 -17.213768,12.20181 -20.219048,17.45743 z m 1.281516,-4.97708 c -9.089056,-7.71544 1.147133,8.91756 0,0 z m 128.46429,-2.5782 c 3.9557,-7.10636 2.63449,6.00109 0,0 z m 99.17052,0.15702 c -4.05874,-11.15795 14.21795,-2.03167 1.3467,0.68134 l -1.3467,-0.68134 0,0 z m 70.09349,0.41415 c 1.63898,-8.91703 7.29477,3.15171 0,0 z M 70.645198,114.28078 c -5.421697,-6.80168 5.629438,-29.841264 8.616596,-13.93517 -1.889537,1.83992 -6.934893,23.03199 -8.616596,13.93517 z m 234.742942,1.23904 c -3.95766,-12.60614 14.73617,1.65849 0,0 z M 87.689261,114.89935 C 71.95517,115.1177 87.08255,105.2976 84.092885,97.388077 c 9.546686,-3.069672 14.284372,5.406193 7.421133,12.026203 1.915485,2.74082 0.459743,9.00856 -3.824757,5.48507 z M 64.6875,108.35417 c -2.762351,-5.71691 8.700081,0.36224 0,0 z m 66.125,-4.03728 c 6.14914,-1.00311 -1.85774,1.93437 0,0 z m 149.88874,0.051 c 0.66896,-3.92799 5.68766,-24.383785 9.63143,-16.145426 -4.95656,5.074834 1.02837,16.833626 -9.63143,16.145426 z m 44.86879,-3.25459 c 3.17591,-9.179257 4.86197,3.74171 0,0 z M 313,97.372563 c 8.24037,-10.540748 17.34352,-21.971991 24.40341,-32.092395 14.48804,0.140412 17.80918,16.992785 2.64546,20.473829 C 332.03144,90.862985 321.91166,96.52927 313,97.372563 z m 21,-11.979552 c -3.43341,-2.284445 -4.396,3.841983 0,0 z M 89.938516,94.938516 c -4.380688,-13.340952 20.536094,-4.765715 3.492409,1.967276 l -1.640309,-0.4996 -1.8521,-1.467672 0,-4e-6 z m 18.128824,-3.58004 c -10.360111,-16.54431 19.10654,-4.126359 4.75538,2.543934 l -2.41813,-0.529158 -2.33725,-2.014776 0,0 z m 90.59933,-3.025143 c -3.11619,-8.038479 14.36697,-15.501373 6.84381,-3.472433 -2.78735,-0.227435 -4.19651,5.971107 -6.84381,3.472433 z M 277,79.468615 c 5.14587,-8.287161 6.22151,6.027253 0,0 z m 23.35238,-1.992708 c 0.86822,-9.452507 9.48491,3.178332 0,0 z m -37.32516,-7.943113 c -1.65969,-10.571127 7.91126,3.580906 0,0 z M 131.2011,67.311283 c 6.61815,-6.394786 13.02923,4.165742 0,0 z M 281,63.5 c 4.91534,-8.976382 3.61853,8.410138 0,0 z m -13,-0.440983 c 4.12756,-10.13961 4.79207,7.663426 0,0 z M 167.39896,61.45343 c 0.58247,-9.938386 5.98904,8.284812 0,0 z M 71.25,58.779505 c -7.01291,-9.315844 11.034428,3.319094 0,0 z m 90.14257,-2.518921 c -6.31387,-1.353174 -18.5551,-3.079423 -10.32759,-11.833712 6.00242,0.741458 17.11046,-14.509348 18.65066,1.113333 -7.69849,0.88663 15.13888,16.075304 1.04183,9.774923 -6.37039,-6.083114 -5.53045,6.173617 -9.3649,0.945456 z M 164,48.828741 c -3.98759,-11.9586 -6.59859,4.259026 0,0 z m 44.49447,7.16231 c 0.12567,-14.70492 9.95218,5.94197 0,0 z M 106.70885,54.375516 c -3.78833,-17.204822 13.89947,2.184555 0,0 z M 82,52 C 78.419902,47.290538 68.518675,40.15409 81.998583,43.463184 88.24802,43.623194 89.209576,58.73312 82,52 z m 117.66667,0.333333 c -2.86165,-10.116586 7.91247,2.597063 0,0 l 0,0 z m 16.38555,-1.77041 c -2.82467,-11.681507 10.08011,1.801528 0,0 z m 13.35174,0.0474 c 0.4336,-9.082607 6.28303,3.021153 0,0 z M 264,48.583333 c 3.61132,-5.611339 2.7621,4.287346 0,0 z M 114,46.559017 c 0.82164,-7.857734 6.98968,-12.090523 4.56842,-1.309017 0.34946,2.47175 -3.948,4.034294 -4.56842,1.309017 z M 227.4,42.6 c 0.21552,-9.047963 4.74278,3.441102 0,0 z M 107.49447,38.991051 c -0.0606,-13.169441 8.97611,3.63452 0,0 z m 15.6857,-3.146089 c 2.34621,-10.453735 6.71389,4.477305 0.0834,2.636199 l -0.0834,-2.636199 z m 114.32991,2.17135 c -0.0205,-8.190882 5.73182,1.960193 0,0 z M 64.345077,35.456872 c 0.541598,-8.007081 7.059622,5.627283 0,0 z M 79.5,35 c -0.636524,-6.878945 5.648369,3.342799 0,0 z M 114,31.5 c 2.56645,-4.684409 2.18807,4.506194 0,0 z M 66.979944,26.475834 c -1.481565,-7.937806 7.005142,5.082561 0,0 z m 54.056676,0.414071 c -9.84548,-10.908067 16.74662,2.415567 0,0 z M 185,21.5 c 2.53031,-5.207268 2.03781,5.019877 0,0 z M 59.249533,18.75 c 6.183982,-5.961501 2.047877,3.648058 0,0 z"
       id="path2997"
       inkscape:connector-curvature="0" />
    <path
       d="m 199.27255,281.73737 c -4.71779,-7.99606 -12.06444,-30.22437 -8.05344,-24.36679 0.70449,1.02882 2.25631,3.27882 3.44849,5 3.761,5.42984 6.45843,10.85861 5.9952,12.06576 -0.24576,0.64044 0.16363,2.26675 0.90975,3.61404 1.55139,2.80139 1.86549,6.94962 0.52623,6.94962 -0.49568,0 -1.76748,-1.46818 -2.82623,-3.26263 z m -68.19997,-6.37223 C 128.9041,272.60836 128.29125,269 129.99153,269 c 0.54534,0 1.55358,0.9 2.24054,2 0.68696,1.1 2.23922,2 3.44946,2 1.21024,0 2.45244,0.40775 2.76045,0.90612 0.30801,0.49837 1.45956,0.67088 2.55902,0.38337 2.55897,-0.66919 2.60699,1.31476 0.0647,2.67533 -3.5538,1.90193 -7.76963,1.22708 -9.99316,-1.59968 z m -11.22532,-13.81053 c -79.898173,29.63026 -39.949087,14.81513 0,0 z M 132,262.44662 c 0,-0.85222 9.98106,-13.11613 17.23536,-21.17741 6.41932,-7.13341 8.19326,-10.91417 7.09373,-15.11875 -0.31904,-1.22004 0.18186,-3.28132 1.16022,-4.77449 1.41822,-2.16447 1.48275,-2.77893 0.36617,-3.48645 -0.74552,-0.47239 -1.91798,-0.86579 -2.60548,-0.87421 -0.6875,-0.008 -2.13499,-0.9003 -3.21665,-1.98196 -1.95554,-1.95554 -1.97512,-1.95457 -3.46448,0.17178 -1.62623,2.32178 -0.47481,2.43911 -13.64533,-1.39043 -4.35565,-1.26647 -5.87404,-0.39877 -5.90823,3.37628 -0.0214,2.36695 -1.64732,3.1327 -8.3227,3.91979 -3.1952,0.37675 -6.63853,1.43531 -7.65186,2.35236 -1.54232,1.39577 -2.49236,1.49235 -5.8326,0.59292 C 101.65347,222.56033 97.412292,216 102,216 c 2.93134,0 2.43952,-1.72135 -1,-3.5 -1.65,-0.85325 -3,-1.2248 -3,-0.82568 0,2.0692 -1.848294,-1.68555 -2.424022,-4.92432 -0.619483,-3.48492 -0.495335,-3.75 1.756264,-3.75 1.332578,0 2.983068,0.675 3.667758,1.5 1.93525,2.33184 4.70278,1.82034 5.41064,-1 0.84976,-3.38571 4.33042,-3.37986 5.1809,0.009 0.77308,3.0802 3.71858,3.94204 9.54802,2.79372 l 4.36044,-0.85894 0.296,-6.73548 c 0.32771,-7.45682 -1.07633,-9.27133 -5.17847,-6.6924 -2.02819,1.27508 -7.92421,2.88021 -12.08632,3.29037 -1.26936,0.12509 -2.09866,-0.5165 -2.33436,-1.80598 -0.20106,-1.1 -0.9296,-2.45 -1.61898,-3 -2.1041,-1.6787 -2.38227,-3.84198 -0.94797,-7.37212 0.75356,-1.85467 1.3701,-4.56138 1.3701,-6.01491 0,-2.89951 2.6975,-6.03403 10.48167,-12.17982 5.09754,-4.02463 6.92957,-4.6948 8.01833,-2.93315 2.48552,4.02165 6.85456,-3.35107 6.33797,-10.69526 -0.33771,-4.80103 -0.33537,-4.80499 3.02441,-5.12648 2.31417,-0.22144 3.51958,-0.92287 3.86663,-2.25 0.68878,-2.63391 2.13277,-2.422 3.23406,0.4746 1.30773,3.43959 2.87481,4.05383 5.13164,2.01143 C 147.83859,143.93111 153,134.67355 153,132.23526 153,130.12037 154.78733,129 158.16124,129 c 1.68832,0 1.89812,0.45326 1.35479,2.92701 -1.51967,6.91904 5.93277,12.57162 8.66592,6.57299 1.40357,-3.08049 1.91977,-3.09194 6.58792,-0.14609 2.05157,1.29465 4.67434,2.6533 5.82837,3.01922 1.96447,0.6229 4.97561,5.17534 4.567,6.9047 -0.10109,0.4278 0.49538,1.03844 1.32548,1.35698 0.86444,0.33172 1.50928,1.8152 1.50928,3.47218 0,3.18835 -1.08996,3.69446 -3,1.39301 -0.68469,-0.825 -1.86479,-1.5 -2.62244,-1.5 C 181.6199,153 181,152.55 181,152 c 0,-1.91508 -1.77099,-0.98435 -2.3785,1.25 -0.68573,2.52205 2.32711,5.75 5.36684,5.75 0.97172,0 2.32697,0.675 3.01166,1.5 0.68469,0.825 2.20229,1.47148 3.37244,1.43661 2.04898,-0.061 2.04208,-0.0977 -0.18668,-0.99154 -3.54706,-1.42258 -1.57553,-3.18672 2.7455,-2.45668 2.70316,0.45669 4.0712,0.21357 4.98346,-0.88564 1.83838,-2.21511 0.34535,-3.7785 -3.26389,-3.41771 -2.61865,0.26176 -3.20461,-0.0636 -3.46923,-1.92624 -0.17512,-1.23267 -1.30012,-2.93285 -2.5,-3.7782 -1.38959,-0.97899 -1.79208,-1.79903 -1.10866,-2.25879 0.59012,-0.397 1.3635,-1.50931 1.71862,-2.47181 0.35512,-0.9625 1.44729,-1.75614 2.42706,-1.76365 0.97976,-0.008 2.79388,-0.285 4.03138,-0.61664 1.67271,-0.44826 2.25,-0.17652 2.25,1.05911 0,2.74286 4.59987,6.57118 7.89553,6.57118 1.64254,0 3.26455,0.45 3.60447,1 0.33992,0.55 3.22173,1 6.40403,1 8.97448,0 10.63504,-3.1102 7.47467,-14 -0.63917,-2.20244 -0.53568,-2.34439 0.86952,-1.19259 1.29432,1.06091 1.97835,1.06804 3.62794,0.0379 2.56733,-1.60333 3.92437,-0.35678 2.3522,2.16068 -2.37194,3.79807 -0.0808,5.56759 6.51751,5.03372 1.66649,-0.13484 2.09035,0.22357 1.64301,1.38931 C 238.05731,145.29304 237.38417,146 236.89301,146 236.40186,146 236,146.82156 236,147.82569 c 0,2.61373 4.59983,6.57417 7.69838,6.62829 3.31689,0.0579 4.13091,2.09589 1.14867,2.87577 -2.16083,0.56507 -2.17548,0.64986 -0.44293,2.56431 1.04627,1.15611 1.46934,2.50167 1.01679,3.23391 -0.42626,0.6897 0.80585,0.27697 2.73801,-0.91717 4.52205,-2.79478 6.37427,-1.51545 7.29581,5.0392 0.70123,4.98763 0.22773,5.65611 -2.37599,3.35435 -2.27444,-2.01067 -17.90776,-3.67294 -20.98881,-2.23171 -3.63607,1.70085 -6.25146,5.88086 -6.81657,10.89447 -0.41779,3.70666 -0.0488,5.16946 2.10264,8.3356 1.43515,2.112 4.07515,4.52942 5.86668,5.37203 2.24762,1.05713 3.35049,2.33246 3.55788,4.11424 0.45678,3.92436 -1.65041,5.06548 -7.37797,3.99546 -2.68273,-0.50119 -5.56279,-0.56281 -6.40014,-0.13695 -2.87094,1.46012 -9.37457,2.00517 -10.70922,0.8975 C 211.59095,201.24556 211,199.52996 211,198.03254 211,194.66177 208.20753,192 204.67126,192 202.48549,192 202,192.45635 202,194.5109 c 0,1.38099 -0.93808,4.50657 -2.08461,6.94572 -1.14654,2.43916 -1.81446,5.28602 -1.48427,6.32637 0.3684,1.16071 -0.35264,3.29586 -1.8662,5.52621 C 193.59449,217.68637 191,224.99163 191,228.97824 c 0,1.72412 -0.77396,3.45045 -1.90076,4.2397 -1.04542,0.73224 -2.88987,3.00775 -4.09878,5.0567 -2.43327,4.12409 -5.84232,4.92528 -9.63969,2.2655 -1.8904,-1.32409 -2.47312,-1.20783 -6.26555,1.25 -2.32345,1.5058 -4.45295,3.79106 -4.79269,5.14321 -1.56361,6.22329 -2.83069,7.24257 -13.31996,10.71503 -5.58599,1.84924 -10.58704,3.09607 -11.11343,2.77074 -0.5264,-0.32533 -2.04647,0.12228 -3.37793,0.99468 C 134.06164,263.00572 132,263.47982 132,262.44662 z m 21.86273,-57.04469 c 0.7224,-1.58551 1.73081,-2.38815 2.5874,-2.05944 0.772,0.29625 1.94164,-0.10962 2.5992,-0.90193 1.58616,-1.9112 2.60989,-1.8194 5.90918,0.52989 3.078,2.19174 4.07714,1.88189 3.3161,-1.02835 -0.43319,-1.65651 -1.40981,-1.94209 -6.64124,-1.94206 -5.82932,5e-5 -6.28503,-0.18059 -9.19265,-3.64379 l -3.05927,-3.64384 -3.69073,5.02777 c -4.41108,6.00911 -4.59253,7.76379 -0.94072,9.09754 5.01663,1.83223 7.82535,1.38969 9.11273,-1.43579 z M 201.5,187 c 0.33992,-0.55 0.14148,-1 -0.44098,-1 -0.58246,0 -1.05902,0.45 -1.05902,1 0,0.55 0.19844,1 0.44098,1 0.24254,0 0.7191,-0.45 1.05902,-1 z m -65.07872,-9.65546 C 137.12612,175.50775 133.50574,171 131.32569,171 c -1.66089,0 -1.65327,0.28023 0.12328,4.53212 1.53981,3.68527 3.92062,4.55309 4.97231,1.81242 z m 60.88154,-3.83084 c 0.10845,-0.54247 -0.59032,-1.13797 -1.55282,-1.32333 -1.0946,-0.2108 -1.75,0.27967 -1.75,1.30963 0,1.73979 2.9553,1.75204 3.30282,0.0137 z M 204,164.12244 c 0,-1.16161 -2.90935,-3.54642 -3.5477,-2.90807 C 199.54673,162.11994 201.18599,165 202.60699,165 203.37314,165 204,164.6051 204,164.12244 z m 16.28287,-4.29429 c 3.82876,-4.57617 -0.5955,-6.16901 -7.2936,-2.62588 -4.99935,2.64453 -5.7199,3.92425 -3.47407,6.17007 1.44813,1.44814 1.96409,1.45745 5.29464,0.0956 2.02959,-0.82989 4.49245,-2.4678 5.47303,-3.63979 z M 204,155 c 0,-0.55 -0.45,-1 -1,-1 -0.55,0 -1,0.45 -1,1 0,0.55 0.45,1 1,1 0.55,0 1,-0.45 1,-1 z m 122,103.31387 c 0,-0.45803 0.93834,-1.41878 2.0852,-2.13501 1.83881,-1.14835 2.04424,-1.08951 1.73852,0.49797 C 329.48266,258.4478 326,259.93882 326,258.31387 z M 100.25,251.33772 C 98.800074,250.75266 98.545224,248 99.940983,248 c 0.517537,0 1.238587,0.48153 1.602327,1.07008 0.36374,0.58854 1.6278,1.46002 2.80902,1.93661 2.05581,0.82947 2.04074,0.86587 -0.35233,0.85098 -1.375,-0.009 -3.0625,-0.24254 -3.75,-0.51995 z m 2.76531,-3.9941 c -0.009,-0.66199 -0.87037,-0.93278 -2.01531,-0.63337 -1.367842,0.3577 -2,0.0307 -2,-1.0346 0,-1.94261 1.64591,-3.0576 2.49219,-1.68829 0.34671,0.56099 1.8403,0.75693 3.3191,0.43543 1.8828,-0.40934 2.27866,-0.29596 1.32068,0.37829 -0.75242,0.52957 -1.75803,1.57847 -2.23469,2.33089 -0.53796,0.84918 -0.87246,0.92946 -0.88197,0.21165 z m 14.48032,-7.35068 c -0.34231,-0.55389 0.10054,-1.28448 0.98412,-1.62354 1.91464,-0.73472 2.98171,0.0749 2.06137,1.56407 -0.83038,1.34358 -2.23491,1.37101 -3.04549,0.0595 z m 158.54979,-2.43822 c -1.04579,-1.26009 -0.98527,-1.64057 0.34196,-2.14988 2.18128,-0.83703 4.87651,0.30315 4.36291,1.84569 -0.62298,1.87105 -3.26284,2.04173 -4.70487,0.30419 z m -18.53534,-1.53841 C 256.77253,234.82294 257.70865,233 259.05902,233 c 1.2168,0 1.22469,2.70662 0.0101,3.45729 -0.512,0.31644 -1.21356,0.11799 -1.55902,-0.44098 z m 10.02254,-0.96352 C 266.65338,233.63015 267.77461,232 269.63234,232 c 0.87615,0 1.37805,0.70256 1.19098,1.66713 -0.38952,2.00847 -2.38616,2.84922 -3.2907,1.38566 z M 305,232.53138 c 0,-0.89459 0.58629,-1.24363 1.5,-0.89301 0.825,0.31659 1.5,0.97746 1.5,1.46862 0,0.49115 -0.675,0.89301 -1.5,0.89301 -0.825,0 -1.5,-0.66088 -1.5,-1.46862 z M 140,228.5 c 0,-0.825 0.45,-1.5 1,-1.5 0.55,0 1,0.675 1,1.5 0,0.825 -0.45,1.5 -1,1.5 -0.55,0 -1,-0.675 -1,-1.5 z m 150.2125,-7.6875 c -1.59873,-1.59873 -1.54033,-3.47272 0.12818,-4.11299 1.98921,-0.76333 3.90526,0.78659 3.50771,2.83745 -0.44087,2.27438 -2.06668,2.84475 -3.63589,1.27554 z m -21.54583,-5.47917 c -1.08655,-1.08654 -0.76018,-4.83982 0.53333,-6.13333 1.68728,-1.68728 2.56809,-1.50184 3.8,0.8 1.79852,3.36057 -1.83459,7.83208 -4.33333,5.33333 z m 15.02083,-8.97916 c -1.37384,-1.37385 -0.66124,-3.49576 1.0625,-3.1638 0.9625,0.18536 1.75,0.96836 1.75,1.73999 0,1.57886 -1.76429,2.47201 -2.8125,1.42381 z M 117,202.74675 C 117,201.52039 122.245,196 123.41019,196 c 1.14439,0 0.57016,3.10036 -1.0252,5.53518 C 120.7053,204.09872 117,204.93238 117,202.74675 z m 174.0562,-1.64174 c -0.7331,-1.36981 -0.65311,-2.19465 0.28861,-2.97621 1.60395,-1.33116 3.65519,0.39236 3.65519,3.0712 0,2.37416 -2.6566,2.31017 -3.9438,-0.095 z m 23.1938,0.23271 c -0.6875,-0.27741 -1.25,-1.36689 -1.25,-2.42105 0,-2.34293 4.13628,-2.66231 5.96365,-0.46047 2.17678,2.62286 -0.81784,4.45351 -4.71365,2.88152 z M 272.36163,199.5 c -0.80229,-2.09072 0.2897,-4.5 2.0396,-4.5 1.63085,0 3.07378,3.42239 2.1043,4.99105 -0.93679,1.51576 -3.48992,1.21322 -4.1439,-0.49105 z m -24.18732,-2.81445 C 246.97844,195.4126 246,193.84617 246,193.2046 c 0,-1.1983 -2.2933,-1.94917 -7.42288,-2.43039 C 235.32577,190.46919 233.69954,188 236.75,188 c 1.05417,0 2.21782,0.30115 2.58589,0.66923 0.36808,0.36807 2.24308,0.83068 4.16667,1.02802 3.39817,0.34861 3.49744,0.25955 3.49744,-3.13784 0,-2.61282 0.3596,-3.35865 1.42268,-2.95071 0.78248,0.30027 1.73742,1.29864 2.12209,2.21862 0.98868,2.36448 1.43448,13.17268 0.54333,13.17268 -0.40671,0 -1.71791,-1.0415 -2.91379,-2.31445 z M 65.323637,187.25 c -0.337477,-0.9625 -1.560854,-2.52749 -2.718616,-3.47776 -1.566803,-1.28601 -1.71908,-1.73345 -0.595568,-1.75 0.830199,-0.0122 2.071513,0.87776 2.758474,1.97776 0.686961,1.1 2.11865,2 3.18153,2 2.508289,0 3.495021,1.61546 1.463012,2.39522 -2.530716,0.97112 -3.435659,0.71766 -4.088832,-1.14522 z M 319,187.60699 c 0,-1.50843 2.42909,-2.84457 3.40223,-1.87142 C 323.71914,187.05247 322.88258,189 321,189 c -1.1,0 -2,-0.62686 -2,-1.39301 z m 54.22251,-0.16369 C 372.00013,186.58711 371,185.26841 371,184.51285 c 0,-0.75556 -1.0125,-1.51755 -2.25,-1.6933 -1.2375,-0.17575 -2.25,-0.94113 -2.25,-1.70085 0,-1.7063 6.24175,-5.16782 8.9844,-4.98252 1.77189,0.11972 1.74355,0.18858 -0.2344,0.56955 -2.89881,0.55834 -3.13288,4.29427 -0.26905,4.29427 1.26327,0 2.20169,-0.8795 2.59025,-2.42764 0.80963,-3.22585 2.91757,-3.88809 6.49215,-2.0396 3.29945,1.70621 4.00357,5.37547 1.17354,6.11554 -0.96971,0.25359 -2.52378,1.78646 -3.45349,3.40638 -1.91837,3.34257 -5.04676,3.85001 -8.56089,1.38862 z M 324,184.12244 c 0,-1.44535 2.83381,-3.34319 3.9562,-2.64951 2.02247,1.24995 1.08233,3.52707 -1.4562,3.52707 -1.375,0 -2.5,-0.3949 -2.5,-0.87756 z M 83.557671,178.28969 c -0.475015,-1.23787 -0.90083,-1.34653 -1.790454,-0.45691 C 79.96005,179.63995 77,179.24704 77,177.2 c 0,-2.30387 1.89613,-4.2 4.2,-4.2 1.098149,0 1.8,-0.73664 1.8,-1.88922 0,-1.03906 0.847137,-2.93538 1.882527,-4.21404 1.647416,-2.03447 2.202324,-2.17911 4.443107,-1.15814 2.248747,1.0246 2.555965,1.7624 2.522688,6.05839 -0.04628,5.97425 -0.496059,6.72285 -4.507869,7.50267 -2.381972,0.46301 -3.312927,0.21446 -3.782782,-1.00997 z M 39.25,176.96884 c -2.34011,-0.94061 -2.652532,-1.75628 -1.661696,-4.33836 0.504543,-1.31482 1.058035,-1.22518 3.887505,0.62958 4.878007,3.19761 3.250247,5.90988 -2.225809,3.70878 z m 246.82673,-1.55773 c -3.38615,-2.84925 -3.97358,-5.80983 -1.4347,-7.23066 2.7044,-1.51346 5.34769,-0.14081 6.90468,3.58558 1.1018,2.63699 1.18599,3.85112 0.33791,4.873 -1.56629,1.88726 -2.28673,1.73494 -5.80789,-1.22792 z M 71.532624,175.05279 C 70.653384,173.63015 71.774605,172 73.632341,172 c 0.87615,0 1.378052,0.70256 1.190983,1.66713 -0.389522,2.00847 -2.386169,2.84922 -3.2907,1.38566 z m -10.352175,-6.20066 c 0.34823,-2.34064 3.292877,-4.71214 4.434028,-3.57099 0.390722,0.39073 0.196953,1.83731 -0.430598,3.21463 -1.431399,3.14158 -4.457883,3.41098 -4.00343,0.35636 z M 36.75,168.45142 c -2.268357,-1.2499 -2.75,-2.19599 -2.75,-5.4018 0,-3.42127 0.448888,-4.15794 3.75,-6.1541 2.0625,-1.24718 4.823864,-3.30888 6.136364,-4.58156 2.229932,-2.16227 7.113672,-3.23599 7.113607,-1.56396 -4.4e-5,1.10934 -6.531289,6.12131 -9.396363,7.21061 -1.365103,0.51901 -2.975198,1.8652 -3.57799,2.99152 -0.99506,1.85929 -0.810282,2.04787 2.006586,2.04787 2.647496,0 3.009465,0.29335 2.467796,2 -0.459779,1.44864 -0.1797,2 1.015946,2 2.569373,0 1.129117,2.47117 -1.593065,2.73336 -1.332584,0.12835 -3.660381,-0.44852 -5.172881,-1.28194 z m 257.00179,-4.29285 c -1.51152,-0.91221 -2.74902,-1.95394 -2.75,-2.31495 -0.003,-1.08244 3.32761,0.13234 5.99821,2.18778 3.1081,2.39215 0.6634,2.48787 -3.24821,0.12717 z M 23.616253,155.75 c -3.236282,-3.61276 -3.672728,-4.62485 -2.910832,-6.75 0.763059,-2.1284 1.453101,-2.46648 4.642398,-2.27446 3.63907,0.21909 7.188908,2.4044 5.937895,3.65541 -0.340476,0.34048 0.805953,0.61905 2.547619,0.61905 3.784553,0 4.301907,2.32726 0.916667,4.12352 -1.2375,0.65663 -2.838017,2.02246 -3.556704,3.03518 -1.944335,2.7398 -3.37146,2.28612 -7.577043,-2.4087 z M 77.25,157.33772 c -3.329559,-1.34351 0.167998,-6.24468 4.5,-6.30592 2.695515,-0.0381 3.077273,2.99807 0.678571,5.39677 -1.591657,1.59166 -2.912471,1.82354 -5.178571,0.90915 z m 242.91052,-1.88477 C 318.48307,151.77135 318.70342,151 321.43261,151 c 2.85581,0 4.37128,3.32645 2.52756,5.54799 -1.6973,2.04513 -2.47042,1.82232 -3.79965,-1.09504 z M 63,154.46862 c 0,-1.84591 2.391729,-2.91601 4.612624,-2.06378 1.30599,0.50116 1.377781,0.9018 0.377555,2.10699 C 66.375004,156.458 63,156.42877 63,154.46862 z m 220.78227,-1.44565 C 283.08742,151.91034 281.72715,151 280.75945,151 279.79175,151 279,150.325 279,149.5 c 0,-1.66399 2.07509,-2.00575 3.55,-0.58468 0.5225,0.50343 2.03975,1.06593 3.37167,1.25 3.14665,0.43487 3.75052,2.40457 1.16191,3.78995 -1.67157,0.8946 -2.26506,0.727 -3.30131,-0.9323 z M 332,149.66667 c 0,-1.88088 0.96233,-2.61836 2.59777,-1.99078 C 336.72483,148.49212 336.27384,151 334,151 c -1.1,0 -2,-0.6 -2,-1.33333 z m -296.82344,-4.7815 c 0.251074,-2.62777 0.826853,-3.45667 2.57344,-3.70472 1.914065,-0.27184 2.25,0.13875 2.25,2.75 C 40,145.6187 39.586804,147 39.081787,147 c -0.505016,0 -1.663064,0.28583 -2.573439,0.63517 -1.372519,0.52669 -1.599985,0.057 -1.331788,-2.75 z m 9.201615,1.65795 c -0.897411,-2.33861 0.398377,-4.7328 2.357317,-4.35554 2.531871,0.48759 2.726569,3.49476 0.310002,4.78807 -1.655853,0.88619 -2.194819,0.79879 -2.667319,-0.43253 z M 277.2,143.8 c -1.91146,-1.91146 -1.39993,-3.71172 1.24316,-4.37509 4.40279,-1.10503 6.47324,2.4791 2.62258,4.53991 -2.4106,1.29011 -2.41082,1.2901 -3.86574,-0.16482 z M 26.917675,139.94912 c -1.072683,-0.66295 -1.125764,-1.14103 -0.226533,-2.04026 C 27.947756,136.65224 31,137.32715 31,138.86163 c 0,1.39975 -2.499654,2.06563 -4.082325,1.08749 z m 14.528474,-1.03625 c -0.883745,-1.42993 0.420206,-2.61486 3.794533,-3.44818 2.075342,-0.51252 2.899701,-0.26243 3.395717,1.03017 0.38212,0.99578 0.07352,2.0752 -0.740682,2.59075 -1.943721,1.23076 -5.643399,1.13167 -6.449568,-0.17274 z m 82.268911,-0.93125 c 0.2903,-1.1101 1.8115,-2.93244 3.38044,-4.04963 2.63899,-1.87912 2.80678,-2.38328 2.24042,-6.73162 -0.33672,-2.5852 -1.08282,-5.29621 -1.658,-6.02446 -0.78406,-0.99271 -0.18584,-2.11892 2.39033,-4.5 1.88986,-1.74675 4.24982,-4.99714 5.24435,-7.22309 2.48323,-5.55796 4.81921,-6.89622 9.24445,-5.29603 1.89362,0.68474 3.44295,1.59944 3.44295,2.03267 0,1.00654 -2.8279,4.49122 -5.84531,7.20288 -4.75513,4.27329 -6.48917,10.25525 -3.65469,12.60766 2.06456,1.71343 1.87935,3.74483 -0.40762,4.47068 -2.50542,0.79519 -3.34826,3.18269 -2.00777,5.68741 1.47547,2.75695 0.73133,3.14662 -2.65449,1.39003 -2.61879,-1.35864 -3.15695,-1.31683 -6.20594,0.48212 -4.11915,2.43035 -4.15725,2.42982 -3.50912,-0.0486 z M 297,138.65499 c 0,-2.04079 3.72189,-4.97569 5.46275,-4.30766 1.83848,0.70549 1.99661,2.79331 0.33725,4.45267 -1.62808,1.62808 -5.8,1.52377 -5.8,-0.14501 z M 326,138.5 c 0,-0.825 0.675,-1.5 1.5,-1.5 0.825,0 1.5,0.675 1.5,1.5 0,0.825 -0.675,1.5 -1.5,1.5 -0.825,0 -1.5,-0.675 -1.5,-1.5 z m -3.27158,-4.10491 C 321.63925,133.30592 322.95544,132 325.14235,132 c 1.17476,0 1.84965,0.52459 1.60812,1.25 -0.47547,1.428 -3.01588,2.15126 -4.02205,1.14509 z m -154.31687,-3.47522 c -0.75213,-2.63759 -1.5772,-3.49034 -3.60691,-3.72795 -2.45762,-0.2877 -2.5704,-0.51923 -1.70478,-3.5 0.50982,-1.75556 0.64193,-4.54192 0.29358,-6.19192 -1.09376,-5.18072 -5.99367,-15.03698 -8.4948,-17.08745 -5.73132,-4.698636 -6.83961,-7.6129 -7.98288,-20.990998 -1.22099,-14.287659 -0.59697,-16.527657 3.40215,-12.212529 1.30341,1.406404 3.4526,2.88695 4.77596,3.290103 1.32337,0.403154 3.75613,1.720875 5.40613,2.928269 3.96039,2.898033 9.11625,4.927807 10.43964,4.109908 C 171.52284,77.176868 172,75.783524 172,74.440983 172,72.71973 172.5536,72 173.87756,72 c 2.50932,0 4.31621,2.331473 3.4852,4.497042 -0.42988,1.120266 -0.0761,2.083904 0.98275,2.676438 2.30107,1.287745 2.06761,2.82652 -0.42884,2.82652 -1.22572,0 -1.90911,0.514568 -1.66011,1.25 0.27009,0.797703 2.10205,1.183392 5.06294,1.065918 4.63751,-0.183996 4.64028,-0.182098 5.83,4 1.62205,5.701824 4.47182,8.687523 8.27481,8.669529 C 200.67841,96.960586 213,92.005852 213,89.917949 c 0,-0.56688 1.34664,-2.260659 2.99254,-3.763954 2.80945,-2.566038 2.91736,-2.932431 1.76378,-5.98862 -1.02942,-2.727257 -0.98766,-3.411898 0.25746,-4.220318 0.81742,-0.530728 2.47114,-0.73383 3.67493,-0.451338 1.2038,0.282492 2.49208,0.02277 2.86286,-0.577167 0.37078,-0.599933 1.59472,-0.850054 2.71986,-0.555822 2.59701,0.679133 7.53513,-2.837247 5.22779,-3.722654 -1.90048,-0.729285 -1.88291,-4.546693 0.0326,-7.079206 0.80751,-1.067621 1.4682,-3.178563 1.4682,-4.690983 0,-3.28914 1.53268,-4.500619 3.56256,-2.815965 1.18133,0.980415 1.83528,0.898016 3.28494,-0.41391 C 241.84299,54.737105 243.38299,54 244.26972,54 c 1.85795,0 3.16477,1.613438 1.92661,2.37866 -0.45996,0.284271 -2.12446,3.802865 -3.6989,7.819098 -1.57444,4.016233 -3.17794,7.677232 -3.56333,8.135554 -0.3854,0.458322 -0.0568,3.298984 0.73011,6.312584 0.78696,3.013599 1.20483,6.238609 0.92859,7.166688 -0.27623,0.928079 0.57451,3.009848 1.89054,4.626153 2.15089,2.641659 2.65177,2.820735 4.95472,1.771439 C 248.84713,91.568162 250,90.58323 250,90.021439 250,89.459647 250.47716,89 251.06037,89 c 0.61173,0 0.92905,1.562127 0.75,3.692154 -0.27659,3.290288 -0.69132,3.788603 -3.81037,4.578282 -1.925,0.487371 -3.89814,1.271543 -4.38476,1.742603 -0.49497,0.479148 -1.92678,0.173712 -3.25,-0.693292 C 238.08339,96.824618 238,96.863415 238,99.420174 c 0,2.244276 0.27629,2.502326 1.80388,1.684786 0.99214,-0.53098 2.33146,-0.63935 2.97628,-0.24083 1.13047,0.69867 0.80618,1.65973 -3.92625,11.63587 -0.52182,1.1 -3.73991,3.69533 -7.15133,5.7674 -8.4015,5.10301 -10.70258,7.17626 -10.70258,9.64289 0,2.8436 -0.83606,2.63997 -4.76387,-1.16029 -2.09589,-2.02783 -4.37011,-3.25 -6.0476,-3.25 -2.14685,0 -2.63134,-0.41883 -2.40468,-2.07877 0.2236,-1.6375 -0.51936,-2.31619 -3.5,-3.19723 -9.14141,-2.70208 -17.77282,-2.40312 -18.74594,0.64929 -0.28522,0.89469 -3.67729,3.14069 -7.53791,4.99111 -5.5159,2.6438 -7.14308,3.9289 -7.59713,6 -0.3178,1.44958 -0.67643,3.04954 -0.79696,3.55547 -0.12054,0.50592 -0.658,-0.61908 -1.19436,-2.5 z M 235,90.877555 C 235,89.10432 234.7532,88.959934 233.5,90 232.675,90.684689 232,91.639789 232,92.122445 232,92.6051 232.675,93 233.5,93 c 0.86218,0 1.5,-0.902494 1.5,-2.122445 z M 236,86.5 c 0,-0.825 -0.675,-1.5 -1.5,-1.5 -1.56157,0 -1.98397,1.1827 -0.83333,2.333333 C 234.8173,88.483967 236,88.061574 236,86.5 z M 227.5,86 c 0.33992,-0.55 -0.0835,-1 -0.94098,-1 C 225.70156,85 225,85.45 225,86 c 0,0.55 0.42344,1 0.94098,1 0.51754,0 1.2191,-0.45 1.55902,-1 z M 160.58933,77.14454 C 159.44336,75.290324 157,77.117858 157,79.829211 l 0,2.615233 2.12136,-2.121355 c 1.16674,-1.166746 1.82733,-2.597093 1.46797,-3.178549 z m 68.95179,2.788929 c 0.36253,-0.586592 0.48194,-1.243744 0.26535,-1.460337 C 229.1196,77.786268 225,79.194904 225,80.116631 c 0,1.251384 3.74795,1.100213 4.54112,-0.183162 z M 237,73 c 0,-0.55 -0.47656,-1 -1.05902,-1 -0.58246,0 -0.7809,0.45 -0.44098,1 0.33992,0.55 0.81648,1 1.05902,1 C 236.80156,74 237,73.55 237,73 z M 26,131.5 c 0,-0.825 0.45,-1.5 1,-1.5 0.55,0 1,0.675 1,1.5 0,0.825 -0.45,1.5 -1,1.5 -0.55,0 -1,-0.675 -1,-1.5 z m 8.187441,-3.23479 c 0.368027,-1.91101 6.839973,-3.48434 8.955257,-2.17702 C 45.456621,127.51828 42.069796,130 37.804231,130 c -3.211264,0 -3.888337,-0.32476 -3.61679,-1.73479 z M 310,124.7 c 0,-1.85506 2.09426,-3.7 4.2,-3.7 2.25541,0 2.43143,3.54372 0.21821,4.39301 C 311.84546,126.38027 310,126.0908 310,124.7 z M 12.091851,116.38964 c -1.8942,-2.40808 -1.971708,-2.93314 -0.708105,-4.79685 0.991296,-1.46208 2.374448,-2.046 4.589525,-1.93752 4.412588,0.2161 4.699026,0.85622 2.278436,5.09174 -2.703629,4.73079 -3.552624,4.95719 -6.159856,1.64263 z M 29,117 c 0,-0.55 0.675,-1 1.5,-1 0.825,0 1.5,0.45 1.5,1 0,0.55 -0.675,1 -1.5,1 -0.825,0 -1.5,-0.45 -1.5,-1 z m 6.114653,-0.90798 c -0.871471,-0.55191 -1.162924,-1.76356 -0.785722,-3.26645 0.438122,-1.74562 0.04803,-2.73357 -1.448336,-3.66807 -1.126378,-0.70343 -1.810583,-1.89757 -1.520455,-2.65363 0.290128,-0.75606 0.01245,-1.54634 -0.617063,-1.75618 -0.659197,-0.21973 -0.741391,-0.61202 -0.193823,-0.92506 C 32.386313,102.77239 38,105.92194 38,108.00287 c 0,2.43049 1.264951,2.52486 4.595161,0.34282 2.226607,-1.45893 2.699204,-1.4799 4.00156,-0.17754 1.889822,1.88982 0.79628,4.83185 -1.795981,4.83185 -1.091905,0 -3.129446,0.9 -4.527869,2 -2.859955,2.24964 -3.212484,2.32427 -5.158218,1.09202 z m 219.476537,0.0555 c -0.85642,-1.38571 0.36018,-4.05115 2.33034,-5.10555 2.3745,-1.2708 4.31473,0.25083 3.91596,3.07109 -0.24475,1.73103 -1.06719,2.47135 -2.99305,2.69422 -1.46056,0.16902 -2.92452,-0.12787 -3.25325,-0.65976 z M 326,115.5 c 0,-0.825 0.675,-1.5 1.5,-1.5 0.825,0 1.5,0.675 1.5,1.5 0,0.825 -0.675,1.5 -1.5,1.5 -0.825,0 -1.5,-0.675 -1.5,-1.5 z m -20.33333,-0.16667 C 305.3,114.96667 305,113.84167 305,112.83333 c 0,-2.02723 4.37581,-2.65231 5.52707,-0.78953 1.33064,2.15302 -3.03932,5.11062 -4.8604,3.28953 z M 86.5,114.34506 c -1.1,-0.23261 -3.0125,-0.63898 -4.25,-0.90305 -3.082092,-0.65767 -2.898413,-3.97105 0.337682,-6.09142 2.333446,-1.52893 2.523922,-2.12069 1.938727,-6.02305 -0.635322,-4.236632 -0.589899,-4.326785 2.162318,-4.291577 1.5462,0.01978 4.090579,1.082519 5.654176,2.361643 l 2.842903,2.325684 -2.592903,2.5929 C 89.901264,107.00783 89.276146,109.4346 91,110.5 c 0.55,0.33992 1,1.49148 1,2.55902 0,1.93394 -1.156933,2.20446 -5.5,1.28604 z m 157.36078,-1.34201 -2.36078,-1.99694 2.86521,-2.55419 c 4.75418,-4.2381 8.54541,-1.39046 5.56445,4.17952 -1.54747,2.89146 -2.9858,2.97953 -6.06888,0.37161 z M 70.516379,109.05161 c -0.385461,-1.21449 -0.157135,-2.77955 0.525506,-3.60208 0.708703,-0.85393 0.956445,-2.70788 0.600007,-4.49007 -0.465091,-2.325457 -0.201802,-3.187624 1.125497,-3.685546 0.952936,-0.357484 2.258319,-1.352151 2.90085,-2.21037 1.586945,-2.119658 2.532401,-0.895473 2.95806,3.830121 0.311111,3.453905 -0.138562,4.487985 -3.535932,8.131335 -3.661143,3.92622 -3.932864,4.04661 -4.573988,2.02661 z M 38.75,103.9199 C 37.7875,103.3593 37,102.08015 37,101.07736 c 0,-1.533365 0.745973,-1.791835 4.691579,-1.625576 5.150607,0.217034 6.75552,2.016906 3.754891,4.211016 -2.159667,1.57919 -4.286396,1.66084 -6.69647,0.2571 z m 242.84777,0.34453 c -1.27054,-1.27054 -0.49864,-4.00893 1.71668,-6.090116 4.30716,-4.046365 6.07564,-2.336134 2.98847,2.890036 -1.7456,2.95506 -3.65294,4.25229 -4.70515,3.20008 z M 253.18576,98.945072 C 250.7847,97.982099 251.03591,96 253.55902,96 c 1.56842,0 1.9847,-2.545927 0.56023,-3.426302 -1.19435,-0.738143 2.06134,-7.500246 3.63075,-7.541133 C 258.4375,85.014654 259,85.45 259,86 c 0,0.55 0.46973,1 1.04384,1 0.57411,0 0.97079,-0.5625 0.88151,-1.25 -0.38151,-2.938021 0.27708,-3.69735 3.77622,-4.353793 3.41384,-0.640439 3.95798,-0.397807 7,3.121297 4.99897,5.782948 4.48969,7.835795 -2.84699,11.475901 -3.37998,1.676984 -6.94211,2.796202 -7.91584,2.487151 -0.97374,-0.309051 -2.05985,-0.09361 -2.4136,0.478767 -0.76756,1.241937 -2.21688,1.238067 -5.33938,-0.01425 z M 42.663345,95.415586 C 39.564999,91.161831 42.758513,87.90137 46.428571,91.571429 48.307585,93.450442 48.429757,95.170243 46.8,96.8 45.158248,98.441752 44.773835,98.313101 42.663345,95.415586 z M 314.5,96 c 0.33992,-0.55 0.81648,-1 1.05902,-1 0.24254,0 0.44098,0.45 0.44098,1 0,0.55 -0.47656,1 -1.05902,1 -0.58246,0 -0.7809,-0.45 -0.44098,-1 z M 90.2,94.8 C 89.54,94.14 89,92.616075 89,91.413499 c 0,-1.604165 0.732413,-2.312228 2.75,-2.65857 1.5125,-0.259639 3.502989,-0.795615 4.423308,-1.191059 1.172077,-0.503619 2.038779,-0.0361 2.893398,1.560771 0.970134,1.812716 0.960244,2.366377 -0.04831,2.70256 C 98.320779,92.05974 96.90625,93.09375 95.875,94.125 93.710629,96.289371 91.904229,96.504229 90.2,94.8 z m -37,-1 C 51.565116,92.165116 51.682195,89 53.377555,89 c 1.975422,0 3.947698,2.710021 3.265705,4.487265 C 55.943459,95.310918 54.813543,95.413543 53.2,93.8 z M 109,92 c -2.07655,-2.076553 -2.79576,-8.390162 -1.07677,-9.452553 1.18536,-0.732596 8.03896,3.282699 8.19525,4.801329 0.25866,2.513238 -0.33099,4.208406 -1.87876,5.401224 C 112.04874,94.438509 111.33657,94.336571 109,92 z m 175.51815,1.029368 C 283.47845,91.347102 286.90724,86 289.02568,86 c 2.12139,0 2.64832,1.465414 0.91264,2.538122 -0.58393,0.360886 -1.47279,1.737444 -1.97525,3.059017 -0.94945,2.497244 -2.41113,3.104938 -3.44492,1.432229 z M 318,93.118034 c 0,-0.55 0.45,-1.278115 1,-1.618034 0.55,-0.339919 1,-0.168034 1,0.381966 0,0.55 -0.45,1.278115 -1,1.618034 -0.55,0.339919 -1,0.168034 -1,-0.381966 z M 59.380219,88.457535 C 57.733864,85.94488 57.607552,85.92345 48.607166,86.629783 35.018534,87.696192 33.874403,87.519549 30.794568,83.879693 25.888626,78.081679 26.25192,71.995317 31.625901,69.952132 33.003265,69.42846 36.373251,69 39.11476,69 c 6.225814,0 10.232584,-2.010134 11.865706,-5.952842 1.424295,-3.43855 1.500794,-3.458377 7.507626,-1.94584 4.11691,1.03665 4.583305,1.525463 7.94282,8.324594 4.03894,8.174181 4.096165,8.438045 2.160902,9.963845 C 66.84925,80.763631 68.210507,85 70.394534,85 c 0.80244,0 2.097203,1.279344 2.877251,2.842988 l 1.418269,2.842987 -4.331067,-2.42068 -4.331067,-2.420679 -1.174475,2.577692 c -1.488004,3.265813 -3.348619,3.277788 -5.473226,0.03523 z M 328,90.106989 c 0,-1.013688 3.04579,-2.394536 3.74326,-1.697059 0.25136,0.251354 0.16039,0.936947 -0.20214,1.523539 C 330.74331,91.224351 328,91.358777 328,90.106989 z M 198.44615,86.912868 c -0.94095,-1.522489 1.10241,-3.300078 2.96977,-2.583505 0.89841,0.344753 1.3022,1.241618 0.96023,2.132783 -0.68249,1.778558 -2.94872,2.038466 -3.93,0.450722 z M 323,87.235184 C 323,86.171951 325.14833,84 326.2,84 c 1.55216,0 0.77494,1.943044 -1.2,3 -1.1,0.588702 -2,0.694535 -2,0.235184 z m -70,-4.676167 c 0,-1.342541 0.47994,-2.737602 1.06653,-3.100136 1.54299,-0.95362 1.82491,-0.313146 1.22859,2.791119 C 254.6409,85.655609 253,85.876542 253,82.559017 z m -49.98943,-0.04628 c -0.67888,-0.817996 -0.9731,-2.167996 -0.65383,-3 0.79816,-2.079961 4.30728,-1.908783 4.86387,0.237265 1.0172,3.922002 -1.74409,5.734028 -4.21004,2.762735 z m 75.14393,-2.950388 c 0.19002,-0.917394 0.7955,-1.64422 1.3455,-1.615168 1.48429,0.0784 1.2116,2.315619 -0.3455,2.834655 -0.84112,0.280374 -1.21599,-0.17677 -1,-1.219487 z m 60.24147,-1.080769 c -1.40978,-2.151608 -1.48672,-2.807456 -0.40758,-3.474401 0.73163,-0.452175 1.86699,-0.616169 2.52301,-0.36443 0.65602,0.251738 1.9447,-0.689896 2.86373,-2.09252 1.87244,-2.857704 5.09396,-3.376133 6.01788,-0.96844 1.06223,2.768131 0.66099,5.129958 -1.27839,7.524996 -1.61636,1.99611 -2.11578,2.13714 -3.5,0.988339 -1.25645,-1.042756 -1.93253,-1.076173 -3.04772,-0.150645 -1.15632,0.959664 -1.76872,0.677135 -3.17093,-1.462899 z m -37.90034,-1.488641 c -0.34231,-0.553884 0.10054,-1.284477 0.98412,-1.623538 1.91464,-0.73472 2.98171,0.07492 2.06137,1.56407 -0.83038,1.343581 -2.23491,1.371006 -3.04549,0.05947 z M 263,68 c 0,-1.288889 0.50641,-1.997863 1.25,-1.75 0.6875,0.229167 1.25,1.016667 1.25,1.75 0,0.733333 -0.5625,1.520833 -1.25,1.75 C 263.50641,69.997863 263,69.288889 263,68 z m 74,-1 c 0,-0.55 0.45,-1 1,-1 0.55,0 1,0.45 1,1 0,0.55 -0.45,1 -1,1 -0.55,0 -1,-0.45 -1,-1 z M 158,64.416667 c 0,-1.765927 2.15276,-1.45839 2.77083,0.395833 C 160.98854,65.465625 160.45417,66 159.58333,66 158.7125,66 158,65.2875 158,64.416667 z M 281.4,64.6 c -0.36606,-0.953939 -0.17057,-2.229435 0.43443,-2.834435 0.8,-0.8 1.28152,-0.626972 1.76557,0.634435 0.36606,0.953939 0.17057,2.229435 -0.43443,2.834435 -0.8,0.8 -1.28152,0.626972 -1.76557,-0.634435 z M 269,62.5 c 0,-0.825 0.45,-1.5 1,-1.5 0.55,0 1,0.675 1,1.5 0,0.825 -0.45,1.5 -1,1.5 -0.55,0 -1,-0.675 -1,-1.5 z M 70,57 c 0,-0.55 0.675,-1 1.5,-1 0.825,0 1.5,0.45 1.5,1 0,0.55 -0.675,1 -1.5,1 C 70.675,58 70,57.55 70,57 z M 209.66667,56.333333 C 209.3,55.966667 209,54.841667 209,53.833333 c 0,-2.249991 2.55593,-2.432935 3.39626,-0.243091 0.97208,2.533208 -0.97887,4.493811 -2.72959,2.743091 z m -102.5992,-2.75204 C 105.61474,51.830869 106.56021,48 108.44494,48 c 2.25118,0 4.06751,2.964053 2.92563,4.774303 -1.4281,2.264004 -2.86954,2.534327 -4.3031,0.80699 z M 82.309295,51.75 C 81.864488,51.0625 81.037141,49.6 80.470745,48.5 79.904349,47.4 78.891724,46.44375 78.220467,46.375 77.54921,46.30625 76.55,46.19375 76,46.125 c -1.199666,-0.149958 -1.338327,-2.797868 -0.183876,-3.511358 0.448868,-0.277416 2.534223,0.08626 4.634122,0.808172 4.146238,1.425409 7.231402,5.359457 6.236411,7.952363 -0.739709,1.92765 -3.234749,2.141865 -4.377362,0.375823 z M 200,50.416667 c 0,-0.870834 0.53437,-1.405209 1.1875,-1.1875 C 203.04172,49.847241 203.34926,52 201.58333,52 200.7125,52 200,51.2875 200,50.416667 z M 216.4,49.6 c -0.36606,-0.953939 -0.17057,-2.229435 0.43443,-2.834435 0.8,-0.8 1.28152,-0.626972 1.76557,0.634435 0.36606,0.953939 0.17057,2.229435 -0.43443,2.834435 -0.8,0.8 -1.28152,0.626972 -1.76557,-0.634435 z m 13.19656,0.556231 c -0.34605,-0.559919 -0.1419,-1.31919 0.45366,-1.687268 1.53748,-0.950218 2.52947,0.35135 1.24598,1.634836 -0.71818,0.71818 -1.27752,0.735435 -1.69964,0.05243 z M 115.51008,47.016312 C 114.77253,45.822937 115.70865,44 117.05902,44 c 1.2168,0 1.22469,2.706621 0.0101,3.457295 -0.512,0.316431 -1.21356,0.117988 -1.55902,-0.440983 z m 1.08648,-5.860081 c -0.34605,-0.559919 -0.1419,-1.31919 0.45366,-1.687268 1.53748,-0.950218 2.52947,0.35135 1.24598,1.634836 -0.71818,0.71818 -1.27752,0.735435 -1.69964,0.05243 z M 108,37 c 0,-1.111111 0.66667,-2 1.5,-2 0.83333,0 1.5,0.888889 1.5,2 0,1.111111 -0.66667,2 -1.5,2 -0.83333,0 -1.5,-0.888889 -1.5,-2 z m 16,-0.5 c 0,-0.825 0.45,-1.5 1,-1.5 0.55,0 1,0.675 1,1.5 0,0.825 -0.45,1.5 -1,1.5 -0.55,0 -1,-0.675 -1,-1.5 z M 80,33.940983 c 0,-0.582459 0.45,-0.780902 1,-0.440983 0.55,0.339919 1,0.816476 1,1.059017 C 82,34.801558 81.55,35 81,35 80.45,35 80,34.523442 80,33.940983 z"
       id="path2995"
       style="fill:#c76977" />
    <path
       style="fill:#b15762"
       d="m 131.03518,275.06574 c -3.6799,-9.70167 12.24639,8.97042 0,0 z m 4.43113,-16.62389 c 6.95774,-10.48552 20.85647,-18.20057 21.56549,-31.75695 1.56241,-6.64039 5.06226,-10.45733 -4.0318,-11.6849 -4.65012,-3.84624 -8.15047,5.20626 -14.29966,-0.99389 -10.47548,-8.15085 -10.10057,9.51118 -20.80735,5.5823 -4.98256,5.97943 -17.24328,3.8697 -11.23846,-5.15248 11.89258,-0.9867 26.40458,-9.34382 18.7514,-22.95294 -8.22976,-1.77288 -20.33776,9.59104 -22.29275,-5.66493 2.03602,-11.70439 13.49468,-28.6766 26.85858,-21.01173 7.73669,3.88212 1.57934,-9.19666 8.02824,-12.1655 -3.01567,-4.91458 -14.74581,-4.27303 -2.60797,-6.37088 3.7011,-9.31962 8.28966,9.29095 12.89072,-3.03633 2.16893,-8.13071 11.38157,-20.83221 11.43454,-5.00355 -2.18699,7.96387 11.73135,4.33612 11.14799,-0.56739 7.41992,4.15501 14.69307,4.55181 7.00401,13.37925 -1.45535,11.46581 19.69444,14.96873 27.29911,12.82681 5.41829,0.39035 15.59781,0.58298 19.54805,-8.48563 16.17307,-7.51028 -10.22401,8.29414 -0.57645,11.91813 5.3589,-4.13757 14.69998,-10.06536 16.61194,-0.62791 -16.57306,-2.4382 -21.61244,20.33951 -8.45807,28.3131 9.65065,10.13856 -12.53904,1.06062 -17.68577,6.35419 -3.93253,-0.7621 -6.03532,-16.7496 -13.32076,-7.8127 -2.89206,13.72316 -9.46747,26.37266 -12.99795,39.79611 -4.31831,14.04342 -23.52629,-0.71278 -25.71849,16.09822 -5.42143,9.35893 -19.83195,7.52241 -28.72237,11.03731 l 1.61778,-2.01771 0,0 z m 30.25801,-49.27929 c 8.97899,-7.95202 3.48882,-13.97445 -5.7566,-10.93113 -7.15206,1.28722 -10.9393,-10.50963 -15.91057,0.11568 -9.92787,13.22824 14.82545,10.95704 21.66717,10.81545 z M 202,186.44098 c -3.78881,-5.25925 -2.59645,6.82934 0,0 z m -65.19455,-10.09362 c -3.09433,-9.65004 -13.56385,-5.99101 -4.18558,1.30049 1.22661,1.95268 4.46811,1.27071 4.18558,-1.30049 z m 64.33756,-1.33371 c 9.9808,-9.12377 -18.63231,0.61698 -1.7684,0.17293 l 1.7684,-0.17293 0,0 z M 290,219 c 4.28148,-6.94225 3.96449,7.08443 0,0 z m -21.41092,-5.62845 c 2.14051,-12.65825 8.21753,6.08295 0,0 z M 284,205 c 2.69252,-4.02999 2.35666,3.89339 0,0 z m 8,-3.5 c -2.24664,-8.15067 6.63289,3.30845 0,0 z m -19.42579,-2.16722 c 1.21388,-10.43028 6.86548,6.58827 0,0 z m 41.07645,0.19925 c 2.23102,-7.51221 9.12627,5.9709 0,-4e-5 l 0,4e-5 z M 320,187.58333 c 3.61133,-5.61133 2.76209,4.28735 0,0 z M 325,183.5 c 4.36335,-5.54329 3.81681,5.28883 0,0 z M 84.5,178 c 0.478604,-7.40533 12.57195,1.07337 0.704286,0.71622 L 84.5,178 z m -6.323324,-1.66713 c 3.955704,-7.10636 2.634501,6.00109 0,0 z m 207.382634,-2.44476 c -5.12471,-19.28296 15.12331,11.82914 0,0 z m -200.470665,-2.2813 c -0.147554,-15.98714 13.114474,4.39772 0,0 z M 62,168.7733 c 2.83612,-7.35642 3.405379,2.66575 0,0 z m 185,-1.23812 c 4.70715,-5.29001 8.2938,3.53009 0,0 z M 77,155.10699 c 7.402859,-11.3539 7.649457,7.9679 0,0 z m 243.31712,-0.67265 c -0.67593,-10.00342 7.4096,6.76939 0,0 l 0,0 z M 44,154.24902 c 3.729099,-5.43479 6.298361,-1.08864 0,0 z M 64,154 c 5.547981,-4.21144 3.52273,3.80024 0,0 z m 149,-1 c -3.90518,-3.89798 13.44365,3.22142 0,0 z m 71.6875,0.35417 c -2.76235,-5.71691 8.70007,0.36225 0,0 z M 21.468963,151.94978 c -0.93967,-4.85484 4.697643,2.30635 0,0 z m 171.218127,-3.7545 c -8.72702,-10.31003 14.63426,-3.43582 4.68178,2.6695 -1.87729,-0.1024 -3.42287,-1.41107 -4.68178,-2.6695 z M 203,150 c 5.56058,-4.06222 6.93103,3.8981 0,0 z m 76.5,0 c 1.51654,-3.80867 3.05358,3.16631 0,0 z m 52.95888,-0.0665 c 0.006,-6.03523 6.46284,3.69842 0,0 z M 225.0856,149.5 c 1.91929,-8.95197 2.75419,-0.48872 0,0 z M 45.542705,145.0691 c 0.252858,-5.34053 3.435182,3.20201 0,0 z M 37,143.55902 c 2.28617,-5.25424 2.191592,3.64675 0,0 z m 239.64423,-1.04377 c 4.1656,-10.06072 9.80208,5.95735 0,0 z m 20.8287,-3.55905 c 0.71292,-8.40868 11.65064,-0.0486 0.6747,0.77451 l -0.6747,-0.77451 0,0 z M 43,138.11663 c 6.537453,-6.31317 4.741592,4.41954 0,0 z m 283.51008,-0.13294 c 3.94468,-2.24072 2.0495,3.71836 0,0 z m -192.82149,-1.46945 c -3.46034,-6.23024 6.02592,3.56114 0,0 z M 323.5,133 c 3.92799,-3.60758 1.90618,3.63534 0,0 z m -191.91059,-3.13176 c -5.12099,-8.17181 9.3629,-31.125041 13.56152,-21.75951 -9.14813,5.40749 -7.66957,18.13969 -11.98531,24.18104 l -1.57621,-2.42153 z m -95.555526,-0.83365 c 0.448476,-5.72111 12.489742,-0.0919 1.411283,0.43752 l -1.411283,-0.43752 z m 129.667246,-2.73333 c -0.0222,-6.98748 -6.30679,-20.04706 -5.02911,-25.25375 1.51676,5.63921 16.96537,1.70904 9.57798,8.55249 -11.68408,3.86745 9.89896,1.31019 13.91361,4.00137 5.74681,0.70506 20.18892,-10.04274 6.93023,-9.51979 -1.91088,-13.483694 17.48709,1.90055 19.44075,6.60166 0.55435,7.92837 7.61436,13.6432 8.81155,2.25481 4.973,-3.3861 11.80863,9.50697 2.15386,6.10235 0.94192,0.17686 3.23267,3.75557 -2.3332,6.94665 -2.93539,2.73513 -6.08174,-7.17038 -10.97008,-3.77585 -2.61468,-9.33774 -23.21216,-10.56604 -28.5022,-0.76663 -4.34425,1.56557 -9.29859,6.42856 -13.99339,4.85669 z m 35.94265,-15.09537 c -6.99176,0.29089 1.32394,2.26349 0,0 l 0,0 z m 109.02289,14.12744 c -1.40284,-7.36194 11.16831,-1.36343 0.71667,0.5175 l -0.71667,-0.5175 z m -55.3348,-9.91087 c 4.78741,-13.92484 8.83228,6.21649 0,0 z M 35.555773,115.09024 c 0.02188,-11.64966 10.567023,3.99357 0,0 z m 270.574547,-0.43322 c -1.31077,-9.64011 9.39713,2.94286 0,0 z m 20.37976,0.32667 c 3.94468,-2.24072 2.0495,3.71836 0,0 z M 11.542705,114.0691 c 0.324984,-5.91588 5.236834,4.13116 0,0 z M 245.75,113.90781 c -5.96739,-7.77138 11.31775,-7.69659 1.56165,0.29401 l -1.56169,-0.29401 4e-5,0 z M 85.5,113.26168 C 74.461979,111.78204 91.28771,104.49707 84.590568,97.853458 97.984381,95.730155 87.37496,107.01006 91,112.98643 c -0.262405,2.2982 -4.706149,-0.63287 -5.5,0.27525 z m -43.325269,-2.93047 c 6.009207,-6.52796 3.911879,5.77563 0,0 z m -8.71585,-2.39774 c 0.0063,-6.03523 6.46284,3.69842 0,0 z M 180.75,107.60795 c -5.37527,-7.48363 7.81879,4.33614 0,0 l 0,0 z m 55.38318,0.0525 c -0.17688,-11.054864 10.31782,0.79069 0,0 z M 72.384615,102.96339 c 4.47115,-17.504308 8.243488,7.2398 0,3.21485 0,-1.07162 0,-2.14323 0,-3.21485 z m 159.186815,0.46518 c -7.19027,-9.855792 10.3209,-11.502599 4.19854,-0.54992 -0.58532,1.49674 -3.23042,3.71259 -4.19854,0.54992 z M 39.017713,102.52134 c -2.855052,-6.474429 13.291686,4.84696 0,0 z M 208,103 c 1.96561,-3.569753 4.14356,3.81394 0,0 z m 73.47282,-0.044 c 0.36926,-11.861756 12.87184,-2.31962 0,0 z M 185.5,95.837722 c -16.63643,-6.09642 7.24738,-11.061846 2.17896,0.567737 L 185.5,95.837722 z m 53.16435,-1.75654 c -7.76009,-10.687961 18.0607,4.402286 2.73053,2.112012 l -1.34916,-0.866301 -1.38137,-1.245711 z M 42.957316,93.920245 c 0.711932,-6.762031 6.970824,6.778335 0,0 z m 48.048478,0.28553 c -6.806664,-7.674484 15.624736,-7.57984 3.273039,0.675326 -0.878698,1.465441 -2.583572,-0.02527 -3.273039,-0.675326 z m 59.522856,-0.561167 c -4.9432,-7.384267 15.95857,-12.925762 6.49371,-0.894608 -0.96573,2.832281 -4.64509,2.591206 -6.49371,0.894608 z M 53.345077,92.456872 c 0.34518,-7.57305 5.123815,5.371368 0,0 z M 109,91 c -8.64221,-21.061962 19.39305,6.832758 0,0 z m 105.52869,1.04642 c -0.35104,-12.910553 9.33762,3.254304 0,0 z M 225,91.766422 c 4.65889,-11.550529 10.63675,4.733947 0,0 z m 44.5445,0.305574 c 4.62701,-6.451637 6.35599,3.693178 0,0 z m 15.47774,-0.238663 c 5.82935,-15.175085 5.74291,3.212448 0,0 z M 162.6367,89.723619 c -2.37583,-4.387544 3.72109,-17.896721 6.22287,-6.3708 -3.03125,2.592051 2.84455,11.031793 -6.22287,6.3708 z m 100.02997,0.609714 c -5.51759,-11.837433 14.25038,-7.866079 4.83164,-0.332689 -1.41728,0.334915 -3.50907,1.756452 -4.83164,0.332689 z M 59.975249,87.4349 c -3.258369,-10.67509 11.071407,1.333664 0.983578,1.841642 l -0.983578,-1.841638 0,-4e-6 z M 199,86 c 3.70053,-3.809655 2.35111,3.328572 0,0 z M 33.893668,84.475134 c -14.771028,-6.138917 3.438179,-22.114612 7.948277,-11.144053 5.050743,2.563964 13.196232,14.54105 1.08326,11.853777 -3.011589,0.02505 -6.099588,0.09436 -9.031537,-0.709724 z M 203.38,81.547887 c 0.35313,-9.218348 7.12603,5.708439 0,0 z m 15.09754,-0.941823 c -3.75234,-10.817382 12.60481,1.44776 1.27582,1.520159 l -1.27582,-1.520159 0,0 z m 14.08121,0.488988 c -0.78507,-8.007429 5.09655,0.790301 0,0 z m -81.21367,-1.63818 c 0.20867,-7.521521 7.25663,5.599322 0,0 z M 278,79 c 2.69252,-4.029985 2.35666,3.893393 0,0 z M 50.25,78.006682 C 41.394723,67.037837 75.61121,72.22813 55.628912,78.36218 L 52.823493,78.577107 50.25,78.006682 z m 123.41667,-1.673349 c -2.24034,-9.274498 6.65919,2.322809 0,0 z M 301.5,76 c 3.06645,-3.215183 0.31598,3.445744 0,0 z m -68.37103,-6.920293 c -4.41646,-12.037621 10.83071,-1.209948 0,0 z M 52.595545,67.446206 C 45.467847,54.071518 73.890658,66.367373 57.70462,68.03204 l -3.053285,-0.0096 -2.05579,-0.576278 z M 281.59656,64.156231 c 0.52296,-5.823835 4.86635,1.616177 0,0 z m -47.02235,-4.823448 c 1.21388,-10.430286 6.86548,6.588257 0,0 z m -24.90754,-3.99945 c -1.92817,-6.389483 5.94744,2.096197 0,0 z M 107,51.573324 c 3.40412,-8.728238 4.56301,7.62819 0,0 z M 82.019141,49.799498 c -6.042125,-18.263745 11.208488,9.867958 0,0 z M 217.07895,48.416667 c 0.97257,-3.545791 0.62175,4.340781 0,0 z M 76,44.416667 c 2.881497,-4.254541 3.498454,5.264052 0,0 z M 108.5,37 c 3.06645,-3.215183 0.31598,3.445744 0,0 z"
       id="path2993"
       inkscape:connector-curvature="0" />
    <path
       style="fill:#8f2733"
       d="m 270,212 c 2.69252,-4.02999 2.35666,3.89339 0,0 z m 45,-13 c 1.96561,-3.56975 4.14356,3.81394 0,0 z m -80.5,-1 C 149.13535,213.33521 63.770704,228.67042 -21.593944,244.00563 63.770704,228.67042 149.13535,213.33521 234.5,198 z m 52.48756,-24.51324 c -5.16023,-12.18868 8.31317,7.4263 0,0 z M 86.403962,170.61032 c 0.236621,-8.54155 6.193279,3.19477 0,0 z M 79.5,154 c 3.92798,-3.60758 1.90619,3.63533 0,0 z m 116,-8 c 3.06645,-3.21518 0.31598,3.44574 0,0 z M 172,143.5 c 2.97721,-7.80241 2.17128,7.67297 0,0 z M 278,142 c 3.70053,-3.80966 2.35111,3.32857 0,0 z M 133.07895,127.41667 c 0.97257,-3.5458 0.62175,4.34078 0,0 z M 312.5,123 c 3.06645,-3.21518 0.31598,3.44574 0,0 z m -91.83333,-6.66667 c -2.10328,-6.74543 6.47829,2.14579 0,0 z m -49.47692,-1.95165 c 7.94406,-3.43615 -0.98867,5.73731 0,0 z m 85.39036,0.74794 c 1.33608,-6.72667 4.50253,1.18437 0,0 z M 307,112.94098 c 2.03304,-2.19464 2.26407,3.34627 0,0 z M 82,110.5 c 4.038776,-6.04498 3.534983,5.84009 0,0 z m 123,-0.39301 c 4.31108,-5.57449 4.96163,3.6649 0,0 z M 246.5,110 c 3.92799,-3.60758 1.90618,3.63534 0,0 z M 200,106.5 c 4.03878,-6.04498 3.53498,5.84009 0,0 z M 74,103 c 2.692517,-4.029985 2.356656,3.89339 0,0 z m 159.08603,-1 c -3.2731,-10.94929 5.44624,-4.874907 0,0 z m -40.54332,-0.9309 c -0.13337,-4.864884 8.10202,3.04844 1.03943,0.65745 l -1.03943,-0.65745 z m 90.47735,-0.59327 c 5.24915,-3.853709 -1.88943,4.79274 0,0 z M 86,99 c 1.965629,-3.569748 4.143528,3.81392 0,0 z m 4.15,-6.95 c 2.874804,-3.85431 1.497239,3.067217 0,0 z m 92.30888,-0.116531 c 0.006,-6.035241 6.46293,3.698415 0,0 z m -72.79221,-2.600136 c -2.89646,-11.157587 11.77463,4.639607 0,0 z M 264,85.916667 c 3.20659,-5.842861 3.16886,6.834762 0,0 z M 53.25,76.269359 c -4.521839,-7.152821 9.478724,0.342377 0,0 z M 233,66.5 c 2.53031,-5.207268 2.03781,5.019877 0,0 z M 53.701236,64.367903 c -2.353682,-5.97563 8.353322,1.626079 0,0 z M 108,51.5 c 2.53031,-5.207268 2.03781,5.019877 0,0 z M 82.606989,49.418213 c -3.405919,-8.920012 5.766015,1.498187 0.691008,1.117137 l -0.691008,-1.117137 z"
       id="path2991"
       inkscape:connector-curvature="0" />
  </g>
</svg>
